<?xml version="1.0" encoding="UTF-8"?>
<svg id="Capa_1" xmlns="http://www.w3.org/2000/svg" width="32" height="32" version="1.1" viewBox="0 0 32 32">
  <!-- Generator: Adobe Illustrator 29.8.2, SVG Export Plug-In . SVG Version: 2.1.1 Build 3)  -->
  <path d="M1.58,10.16c.1-.24.34.07.4.24.2-.1.33-.11.4.13.07.52.29.83.7,1.14,0,.38.14.59.4.63.29.28.53.61.73,1,.22.09.37.21.45.38.19.06.26.24.21.52.13.13.19.27.22.45.33-.13.39.12.41.38.14.05.19.17.15.38.24.04.34.17.38.41.22.07.36.03.07-.07-.09-.11-.32-.64-.17-.72-.08-.2-.16-.39-.24-.58-.27-.22,0-.46.18-.14.45,1.2.93,2.42,1.38,3.62.05.13.05.19.12.34.1.11.18.03.24-.24.04-.11.06-.23.1-.34.05-.06.1-.11.14-.14.04.02.1.25.09.29-.1.17-.24.52-.04.62,0,.33.04.43.32.57-.08.22-.02.34.17.34.09.24.24.4.46.46.06.14.14.25.25.32.01.18-.1.58-.32.62.14.13.08.43-.12.39-.14.01-.26-.08-.37-.26-.31-.09-.61-.38-.31-.66l-.08-.17c-.25.07-.6-.1-.64-.38-.14-.21-.26-.43-.37-.66-.34-.14-.49-.35-.47-.64-.23-.02-.35-.2-.34-.53-.26-.18-.34-.36-.43-.64-.3-.3-.55-.61-.77-.96-.02-.26-.11-.43-.28-.5.02-.23-.25-.35-.29-.09-.49.36-.61.25-.43-.34-.22-.19-.25-.33,0-.51,0-.24.03-.75-.24-.36h-.07c-.14-.12-.28-.23-.42-.34-.14.06-.27-.34-.3-.47.06-.26,0-.42-.16-.5,0-.1-.03-.16-.11-.2-.14-.33-.25-.68-.35-1.02l-.1-.07s0-.03,0-.05l-.14-.39s-.03-.1-.05-.14c-.14-.28-.24-.57-.34-.87-.01-.03-.07-.08-.1-.14,0-.06.01-.09.05-.1Z" fill="#2a4697"/>
  <path d="M28.83,10.21c-.03.17-.15.26-.36.27l-.07.05c.25-.05.47-.07.45.25.21-.04.33,0,.37.15v.42c.11.02.21.06.28.11.01.1-.07.14-.1.19l-.12.06c-.11.33-.3.41-.55.14l-.06.1c-.16.03-.65.04-.72-.1h-.08c0,.17-.23.29-.31.1l-.07.09c-.36-.02-.73-.09-1.09-.23l-1.74-.29c.12-.15.42-.15.53,0,.03-.11.08-.19.14-.24.08-.54.09-1.09.05-1.65l-.1-.23c-.12.12-.26-.15-.1-.19,1.34.05,2.45.38,3.62,1.01Z" fill="#5cbeb8"/>
  <path d="M28.15,15.95c-.05-.18.1-.23.45-.13.1-.33.31-.22.43.03h.16c.02-.12.05-.15.17-.09,1.9,1.59,1.35,4.17-.63,5.4h-.05c-.1-.03-.04-.1.05-.1-.04-.05-.15-.07-.33-.05-.11,0-.17-.03-.15-.15-.07-.13-.03-.14.1-.1-.06-.07-.03-.1.05-.05.19-.15.2-.29.23-.53.09-.13.25-.33.4-.36-.12-.63.04-.87.47-.73-.04,0-.09-.02-.1-.04-.02-.22-.04-1.18,0-1.36l.1-.07c-.17.12-.59.19-.77.1.16.04.15.61,0,.68.02.15-.17.15-.19,0-.16-.08-.15-.68,0-.77-.06.16-.33.16-.39,0-.13.32-.34-.31-.32-.45.01-.16.12-.28.23-.39v-.78s.1-.07.1-.07Z" fill="#5bbeb8"/>
  <path d="M3.9,9.53c.1.01.27.09.14.15-.36.02-.72.03-1.08.03-.34-.05-.33.02.04.22.18.5.45.93.8,1.29l.7,1.07c.18.19.34.39.48.59.18.14,0-.41-.04-.47-.06-.2.06-.35.17-.12.26.68.52,1.35.77,2.03l-.19-.1c-.02.16,0,.16.14.14-.1.19.03.12.05.18.02.05,0,.11.01.17.03.1.17.25.13.39-.02.06-.12,0-.1.08l.14.05-.14.02c.17.06.16.35.2.4.06.08.31.01.18.35-.06-.04-.37-.09-.38-.1-.02-.02,0-.21-.1-.31-.09-.09-.21-.05-.25-.1-.08-.1,0-.28-.02-.31s-.12-.05-.14-.1c-.05-.08-.02-.35-.15-.38-.06-.01-.22.08-.26.04-.01-.01-.05-.24-.09-.32-.03-.07-.13-.13-.14-.19-.04-.12.03-.32-.03-.4-.03-.04-.13-.03-.16-.06s-.02-.12-.08-.18c-.05-.04-.31-.15-.35-.2-.21-.21-.37-.77-.69-.98-.11-.07-.29-.09-.33-.13-.09-.1-.09-.44-.14-.56-.06-.13-.35-.24-.43-.39-.05-.09-.15-.33-.19-.43-.04-.09-.07-.47-.18-.48-.05,0-.17.13-.26.08-.04-.02-.13-.37-.35-.33-.06-.02-.17-.5-.15-.52.14-.12,1.16-.07,1.41-.06.34-.03.67-.05,1.01-.05.02,0,.03,0,.05,0Z" fill="#2b4899"/>
  <path d="M4.19,16.92c.15-.09.28.03.38.37.21-.43.38-.05.35.26l.18.13c.22.44.43.8.81,1.12-.07-.57.28-.55.45-.07.32.13.08.31-.13.41.05.51.48.99.86,1.33.13.11.18.1.33.04-.05-.31.23-.35.36-.07.05.51.22.7.5.59.15.13.28.17.4.13.03-.07.15-.11.15-.12,0-.12-.25-.33-.2-.5l.22.14c.15-.15.17-.35.27-.53-.03-.07,0-.12.05-.14.03-.11.06-.11.1,0-.07.35-.17.7-.34,1.01-.01.03-.05.07-.08.14-.04.13-.01.41-.17.49-.18.02-.32,0-.43-.05-.24.03-.46.03-.68,0-.55.07-1.1.06-1.64-.01l-.1-.13c-.11-.23-.16-.43-.24-.68-.08-.17-.15-.35-.19-.53-.1-.24-.16-.38-.24-.63-.1-.19-.17-.41-.19-.63-.24-.53-.48-1.08-.63-1.64-.04-.11-.09-.22-.14-.34-.04-.01-.04-.03,0-.05v-.05Z" fill="#284496"/>
  <path d="M23.8,9.63c.04.09-.05.15-.28.18l-.11.06s.03.05-.05.05c-.12.12-.27.21-.43.29.07.09-.1.16-.19.19-.06.11-.18.21-.34.29-.02.05-.05.09-.1.14v.06c-.09.04-.19.08-.24.18-.03.13-.22.31-.34.39-.31.4-.58.83-.83,1.29l-.09.02c-.09-.08-.12-.2-.09-.37-.1.03-.16,0-.2-.07,0,.33-.45.21-.47-.09v-.41c-.12-.05-.17-.12-.16-.25-.2-.07-.29-.35-.08-.43-.13.06-.23.07-.3.03.27-.44.73-.78,1.16-1.06.13,0,.22-.05.24-.14.08-.04.13-.06.19-.1.34-.12.68-.23,1.01-.32.2.07.25.07.42-.05.13.07.24.09.32.04.29.05.57.05.85,0l.1.07Z" fill="#50bdc1"/>
  <path d="M4.19,9.82c.1.32-.2.28-.24,0h-.2c0,.09.01.56.03.59.04.05.31.22.4.18l.11.12c.04-.16.11-.2.19-.11.21.56.42,1.13.63,1.69-.11-.07-.11-.07-.09.06.02.12.2.49.18.52-.01.01-.31.18-.34.15.06-.27-.11-.25-.22-.38-.35-.4-.59-.89-.9-1.32-.13-.19-.36-.37-.47-.55-.12-.22-.22-.63-.39-.81-.08-.09-.56-.18-.33-.28.32-.13,1.11.03,1.49-.04l-.14-.1c.07,0,.13-.01.19.02.07.05.07.19.1.27Z" fill="#2b4b9b"/>
  <path d="M28.05,15.13c.09.11.12.26.1.43.09.12.09.25,0,.39.02.04.01.81,0,.88,0,.02-.22.2-.23.36,0,.02.12.43.14.45.01.01.07,0,.09,0,.16.45.15,1.05,0,1.5.05.43.09.87.1,1.3.03.12.06.23.09.34-.02.02-.07.07-.1.1.02.03.04.08.02.1-.25.21.17.09.31.02.06,0,.13,0,.15.07l-.05.1c-.17.13-.37.25-.58.29-.22.07-.29-.05-.21-.25-.12-.12-.06-.21.02-.33-.04-.65-.09-1.31-.15-1.96l.06-.07c-.09-.08-.12-.22-.06-.43-.01.08-.04.13-.13.15-.01.04-.03.04-.05,0,.05-.28-.03-.77-.24-.97-.07-.19-.1-.63.14-.34l.11-.04c.1.16.09.07-.05-.27.11-.5.11-1.04.08-1.56-.17-.18-.04-.37.19-.32.04-.15.24-.05.25.07Z" fill="#55bdba"/>
  <path d="M11.15,9.58c.13.3.25.61.36.92.23.12.34.28.33.49.47.59.85,1.27,1.22,1.93.15.02.24.14.26.35l.51.57c-.01.18.06.32.2.41.07.26.22.47.43.64l.29.63c.38.21.48.4.31.57-.05.15-.07.3-.07.47l-.14.03c-.22-.64-.44-1.16-.93-1.68-.12-.22-.25-.42-.37-.62.04-.13-.05-.24-.28-.33-.14-.04-.33-.31-.41-.45-.12-.2-.19-.44-.24-.66l-.14-.05c-.42-.44-.74-.99-.91-1.57-.16-.06-.19-.11-.2-.28-.07-.14-.25-.48-.42-.35l-.09-.06h-.07c-.04-.14-.12-.24-.22-.29,0-.11.06-.16.1-.24l.18-.44s.26-.03.3,0Z" fill="#1b82c5"/>
  <path d="M13.27,15.28l.11.03c.2.32.45.59.74.82,0,.19.05.29.17.3l.14.27,2.44,3.64c.29.18.39.35.28.52l.09.25c.26-.11.34.14.32.36.09.08.11.14.07.19-.03,0-.06,0-.1,0l-.58-.07c-.07-.12-.11-.2-.09-.35l-.27-.43c.01-.19-.17-.49-.36-.54l-.05-.11c.05-.08-.02-.16-.22-.24.01-.27-.04-.31-.28-.41-.03-.24-.12-.43-.25-.58-.15.01-.33-.08-.22-.21l-.15-.07c.02-.38-.27-.66-.53-.91,0-.2-.13-.38-.39-.56-.2-.47-.47-.88-.79-1.23-.19.02-.24-.09-.17-.33-.3-.14-.51-.51-.28-.77.2,0,.2.16.2.32.1,0,.17.04.19.11Z" fill="#2672b9"/>
  <path d="M8.01,17.01c.21,0,.23.16.06.49.04.23.18.44.42.63l.07.19c-.03.2.07.33.31.38l.44.61c.05-.17.35-.42.34-.14-.06.15-.13.3-.19.43-.11.07-.18.19-.22.36l-.07.03s.05.05.04.09c0,.02-.07.04-.09.06-.24.12-.21-.15-.31-.24-.07-.06-.19-.05-.26-.11-.06-.05-.18-.34-.22-.36-.09-.05-.21.07-.22-.18,0-.06.06-.19.04-.22,0,0-.12,0-.2-.07-.18-.17-.1-.42-.12-.46-.02-.04-.19-.09-.22-.17-.02-.04.07,0,.09-.06.07-.14.03-.29.05-.37,0-.04.08-.03.09-.06.01-.04-.03-.23,0-.31-.02-.11.02-.24.1-.39.02-.05.03-.1.05-.14Z" fill="#2a4798"/>
  <path d="M10.32,10.84c.06-.15.33-.04.22.11.12-.05.12.1.02.19.12,0,.23.08.3.22.12.27.26.46.51.62.05.34.2.64.4.93.13,0,.25.06.34.16.14.52.41.94.82,1.26l.06.38c.27.05.35.13.26.23.11.1.14.26,0,.34h-.27c-.05-.21.04-.27-.12-.43-.14.04-.29.04-.44.02l-.09-.33c-.04-.13-.09-.17-.15-.12-.07-.18-.2-.55-.28-.71-.04-.08-.06-.14-.16-.06-.22-.22-.35-.37-.51-.65l-.02-.16c-.16-.02-.25-.15-.28-.37-.17-.08-.26-.25-.28-.49-.2-.06-.36-.23-.29-.44-.14-.05-.2-.16-.17-.35.04-.1.06-.23.1-.34Z" fill="#2673b9"/>
  <path d="M27.67,18.9c.12.08.05.2-.19.36-.09.13-.05.62.09.71l.1.5c-.09.3-.15.61-.08.93.16.06.29.16.08.25-.05.02-.1.03-.14.05l-.34.1c-.39.13-.8.17-1.21.19l.06-.11.58-.17c-.09,0-.15,0-.16-.11-.1-.09-.09-.13.05-.1.01-.08.11-.12.29-.11-.02-.53,0-1.06.05-1.58.31-.15.01-.33-.22-.3l-.06-.09c.25-.12.55-.26.77-.43.09-.15.18-.26.29-.34.12.05.11.14.05.24Z" fill="#4abbba"/>
  <path d="M10.57,10.31l.12.05c-.02.22.05.37.22.45,0,.24.06.38.21.41.11.22.24.43.44.6-.05.3.28.6.5.77.03.19.05.29.21.41.06.02.11.05.16.1.29.61.71,1.12,1.17,1.61.11.17.32.57.18.71.11.06.24.26.19.39-.03.03-.07.07-.09.06-.36-.24-.47-.56-.59-.93-.02-.01-.03-.07-.06-.08-.08-.03-.16.02-.24-.04-.12-.1-.06-.32-.11-.44-.01-.03-.4-.31-.49-.45-.12-.19-.29-.76-.36-.84-.09-.1-.21-.04-.29-.09-.05-.03-.36-.6-.38-.69-.02-.07.04-.17.02-.21-.02-.03-.31-.25-.36-.31-.08-.1-.23-.47-.34-.54-.07-.04-.17.05-.19.03,0,0,0-.23.01-.23.02-.02.1.03.09-.05-.1,0-.17.04-.14-.1l.14.02-.24-.07c.07-.17.13-.38.24-.53Z" fill="#2377bd"/>
  <path d="M13.27,14.94c.29.18.13.1.21.35.06.19.28.44.47.52.15-.02.28.1.38.34.04.16.1.27.2.34.2.18.44.46.4.73.23.08.28.16.39.4.09.36.32.68.65.87.05.06.11.28,0,.32.21.25.4.53.56.82.24.21.44.45.59.72.25.02.28.22.29.45.22.23.31.45.29.76-.03.06.07.08-.1.1-.09-.08-.14-.43-.19-.46-.08-.06-.19.07-.27-.02-.04-.04-.12-.27-.12-.32,0-.08.09-.13.09-.14,0-.02-.3-.24-.35-.31s-.14-.31-.22-.4-.08-.05-.21-.24c-.68-.99-1.33-2.01-2.01-3.01-.04-.06-.1-.24-.11-.25-.05-.03-.17,0-.19,0-.02-.02.04-.26-.02-.34-.03-.04-.12-.03-.16-.06-.03-.03-.02-.11-.06-.15-.14-.16-.5-.47-.53-.65-.02-.1.01-.23,0-.34Z" fill="#2376bc"/>
  <path d="M8.34,16.43c.14.03.12.13,0,.19l.07.02c.17.72.38,1.32.93,1.84.18.01.27.08.25.21.06-.13.16-.25.25-.09,0,.03,0,.07,0,.1-.06.11-.12.22-.14.34-.02.05-.02.09-.05.14l-.07-.1c0,.21-.08.1-.12.12-.03.01-.02.22-.17.21-.09,0-.41-.58-.5-.65s-.24-.07-.27-.11c-.04-.06,0-.3-.11-.47-.07-.12-.16-.13-.19-.17-.04-.05-.24-.34-.25-.36-.07-.24.26-.48.04-.64.07-.22.17-.4.24-.58.04-.08.08-.09.1,0Z" fill="#2c4999"/>
  <path d="M25.59,14.46c.1-.03.24,0,.34.05l.09.06c.02.73.02,1.46,0,2.19-.02.17-.14.23-.38.16-.05-.02-.12-.03-.19-.05-.12,0-.22-.04-.29-.1-.2-.13-.05-.36.1-.14.06-.05.03-.13-.1-.24.14-.15.14-.27.02-.35-.06-.22-.07-1.52.1-1.61.06.01.12,0,.17-.02.05,0,.12,0,.14.05Z" fill="#1fb6c3"/>
  <path d="M18.25,13.39c.04-.14.36-.21.46-.17.19.08.11.31.05.45.28.12.41.47.44.76.27.05.4.14.35.45.13.2.21.4.24.61.14.06.2.19.1.31.02.05,0,.07-.05.05-.22-.08-.33-.02-.43.17-.2.08-.57-.6-.39-.75l-.07-.19c-.25-.07-.37-.21-.37-.42-.25-.11-.37-.35-.35-.73.02.2-.15.61-.23.28-.04-.04-.04-.1,0-.19.07-.22.16-.42.24-.63Z" fill="#1fb7cc"/>
  <path d="M13.32,17.25c-.1-.12-.18-.28.04-.26.02,0,.33.34.2.35v.07c.21.05.29.12.25.33.18.06.26.17.24.31.13-.05.23-.03.31.09.12.29.25.57.41.84.21-.04.48.46.34.59.14.13.24.3.29.52.3.27.54.53.71.9l.09.04c.02.2.08.37.17.52.04.01.04.03,0,.05-.05.02-.12.03-.19.05-.14,0-.29,0-.43,0-.07-.07-.04-.1.05-.05.12-.12,0-.35-.08-.49-.24-.41-.59-.88-.9-1.23-.09-.18-.16-.35-.23-.53-.27-.03-.44-.24-.51-.64-.11-.06-.19-.13-.13-.26-.09.02-.14.02-.18-.08-.14-.18-.23-.4-.29-.63-.01-.03-.03-.06-.05-.1-.05-.13-.08-.26-.1-.39Z" fill="#2c66af"/>
  <path d="M8.92,15.13c.1-.08.13-.05.1.1.09.42.32.8.67,1.14.11.31.26.59.45.82.22,0,.26.11.14.35-.02.07-.03.09-.05.14l-.06-.02c-.05.17-.12.24-.23.21-.14.05-.16-.07-.14-.2-.3-.29-.55-.64-.73-1.04l-.54-.54c-.02.17-.08.28-.18.34h-.1c.12-.33.17-.57.34-.92.02-.07.2-.53.22-.54.05-.02.13.09.12.15Z" fill="#2d509e"/>
  <path d="M19.5,11.17c.16-.11.52-.28.37.04,0,.02-.14,0-.07.17.04.11.15.11.17.14.03.05,0,.12.02.17.02.03.1.03.13.09.06.18-.1.64.23.65.06,0,.05-.07.17-.1.2.03.28.65.05.68-.09.04-.12.09-.1.14.09.1.07.15-.05.19-.08.01-.14.05-.16.12l-.13-.06c-.14-.34-.3-.64-.49-.96.03-.1-.01-.14-.14-.13,0-.17-.05-.26-.15-.28.11.22-.26.36-.27.07.07-.17.09-.34.08-.5.13-.18.1-.27.34-.43Z" fill="#49bcc2"/>
  <path d="M12.21,14.41l.1-.24c.1.01,0,.15.14.05l-.14.14h.19s-.15.07-.15.07c.17,0,.09.32.15.36.09.06.2-.14.39.05.04.11-.01.38,0,.45.04.14.3.16.36.28.05.1-.06.23-.03.29,0,0,.09-.05.16,0,.02.01.26.26.27.28.25.35.39.81.67,1.15.07.08.23.12.27.22.03.07-.03.15.02.22.04.06.25.17.28.23.06.12.22.4.25.48.02.04-.08.2.06.28,0,.13-.05.12-.1,0-.01.02-.03.04-.04.06-.15.09-.33-.43-.35-.54-.25-.24-.37-.43-.46-.75-.24-.12-.42-.22-.43-.51-.23-.2-.39-.42-.48-.67h-.07c0,.3-.31.05-.17-.2-.23-.08-.32-.19-.23-.42l-.14-.27c.02.12-.02.19-.09.22-.2-.38-.28-.81-.43-1.21Z" fill="#2870b7"/>
  <path d="M18.87,12.77c.08.09.18.18.27.29.02.2.02.41.02.61l.38.4c-.04.25.02.41.18.46.03.24.14.27.35.16l.11.06c.05.03.05.11,0,.24.05.06.03.13-.05.14-.1.04-.15.11-.14.19,0,.11,0,.23,0,.34-.02.06-.03.09-.05.14-.01.04-.03.04-.05,0,.04-.27-.15-.19-.19-.25-.03-.04,0-.14-.02-.2-.04-.1-.22-.43-.23-.46-.02-.09.03-.24-.02-.31s-.17-.03-.23-.05c-.17-.06-.11-.24-.14-.35,0-.02-.22-.38-.24-.39-.04-.04-.18-.04-.19-.1,0-.07.25-.4-.05-.41v.29c-.25,0-.02-.38-.34-.19.11-.28.14-.51.34-.77.05-.2.28-.44.31-.11,0,.05,0,.21-.02.26Z" fill="#30b9c9"/>
  <path d="M27.81,18.85c.02.59.2,1.23.18,1.76,0,.12.01.25,0,.29,0,.06-.1.13-.09.2,0,.03.1.02.09.04,0,.15-.16.24.1.32-.07.05-.15.1-.24.14-.08.03-.13.03-.19.05.13-.17-.16-.06-.19-.27-.02-.12-.02-.49,0-.62.01-.08.1-.13.1-.24,0-.03-.09-.47-.1-.52-.01-.04-.08-.03-.09-.07,0-.04-.05-.42-.04-.48.02-.31.11-.27.28-.44.05-.04.04-.11.05-.12-.06-.14.07-.18.14-.05Z" fill="#51bcba"/>
  <path d="M8.34,16.63c.11-.25.58.23.66.37.08.4.27.68.57.85,0,.32.28.41.26.08l.11-.04s.17-.23.18-.24c.08-.07.13-.07.11.05-.08.22-.27.81-.39.92,0,0-.07,0-.1.02-.07.07-.07.25-.24.27-.05-.06.01-.28,0-.29-.04-.02-.13.02-.22-.05-.03-.02-.49-.58-.53-.63-.19-.28-.37-.96-.41-1.3Z" fill="#2b4b9b"/>
  <path d="M27.47,14.84c.37-.03.02.56-.2.62-.03.31,0,.56.11.84l-.06.56c.17.04.31.28.15.39h-.14s.15.31.15.31l-.15.02c-.07-.06-.48-.29-.58-.34.03-.08.08-.04.14,0,.04-.08-.02-.16-.18-.23v-.1h-.06c.03-.14.08-.27.14-.41-.04-.01-.09-.03-.1-.06-.02-.25-.02-.74,0-.98l.1-.07c-.24-.19-.31-.51.05-.56h.62Z" fill="#49baba"/>
  <path d="M15.69,17.98l.1-.04c.16.14.29.3.38.47.04-.07.2-.04.19.05.2-.12.28.18.32.35.07.36.24.61.51.75.02.17.11.28.26.31.08.15.4.74.39.86-.01.16-.13.17-.11.14.06-.08.26-.23.27-.05-.08.25-.16.49-.29.72l-.15-.1c.12-.24-.01-.22-.03-.25-.01-.03.04-.08.01-.13-.03-.06-.17-.09-.22-.27-.04-.13,0-.21,0-.25,0-.01-.13-.07-.18-.2-.27-.34-.54-.7-.81-1.07l.04-.08c-.06-.16-.17-.32-.32-.45l-.07-.22c-.33-.22-.43-.4-.3-.54Z" fill="#1f7cc0"/>
  <path d="M29.41,11.66c-.16.31-.31.61-.48.92-.18.32-.43.32-.75.01h-.12c-.2-.13-.47-.3-.68-.4-.01-.1.11-.2.19-.24.3.04.15-.14.27-.19.15-.07.11.1.12.1h.77s-.01-.08,0-.09c.09-.08.09.07.13.09.29.19.27-.06.4-.26.04-.06.11.05.15.07Z" fill="#5dbeb6"/>
  <path d="M9.36,13.78s0,.07.05.1l.07-.09c.31-.03.81.92.91,1.19.18.15.2.3.21.51.26.1.37.24.31.41-.05.17-.09.27-.14.43-.06,0-.32-.05-.1-.14-.19-.04-.29-.16-.29-.37l-.17-.04c-.29-.47-.58-.95-.87-1.44-.02-.15-.09-.24-.22-.28.08-.22.16-.45.24-.68.16-.08.27.43,0,.39Z" fill="#2d59a6"/>
  <path d="M26.51,21.5c-.12,0-.14-.15-.15-.26-.01-.4-.01-.86.1-1.24,0-.09-.09-.1-.28-.04l-.06-.1c-.15.17-.34-.07-.17-.22l-.07-.07c.21-.07.45-.12.68-.14.31-.03.41.02.58.31-.04.07-.15.06-.19.1-.15.12.03,1.33-.06,1.59-.04.13-.27.07-.38.08Z" fill="#42b9bc"/>
  <path d="M19.16,11.61l.15.02-.15.55c.1.02.14-.08.19-.14.01-.02.03-.04.05-.05s.15.32.12.34c.13.04.41.59.4.66-.21.24.06.41.28.47l.05.23c.19.1.19.32-.04.33-.02.04-.06.08-.09.06-.26-.17-.53-.43-.61-.73-.17-.25-.45-.45-.66-.58-.03-.07-.11-.11-.12-.14-.03-.05.15-.15,0-.19-.01,0-.15.17-.17.19.08-.4.35-.7.58-1.01Z" fill="#40bbc7"/>
  <path d="M27.38,14.79c.05,0,.09.02.1.05-.15.16-.61.04-.73.12-.07.05-.07.2,0,.25.09.06.4,0,.53.02.05.21-.48,0-.48.17v1.11s.04.06.05.1c0,.15-.08.22-.19.31-.3.27-.38-.31-.35-.56.04-.39.05-.77.02-1.16.07-.06.07-.14-.02-.25.15-.14.15-.26,0-.35-.06.13-.22.09-.24-.05-.04-.03-.03-.05.05-.05.44.08.84.06,1.26.29Z" fill="#43babc"/>
  <path d="M28,14.99l.35.2c.04.16-.35.17-.3-.06-.04-.02-.13-.11-.14-.1,0,0,0,.1-.05.12-.06.04-.19-.07-.24.05-.04.09.09.06.09.09-.02.39,0,.77,0,1.16,0,.14-.09.35-.09.49,0,.19.21.23.1.53-.08.22-.12-.07-.16-.14-.03-.05-.08-.07-.09-.08-.03-.06-.02-.18-.07-.24-.05-.06-.17-.03-.17-.07-.02-.15.09-.45.05-.68-.02-.11-.09-.17-.1-.24,0-.09-.02-.62,0-.64.02-.02.11,0,.16-.06.04-.05.2-.33.22-.41-.02-.05-.06-.05-.09-.08-.01,0-.07-.03-.1-.05.24-.02.43.11.63.19Z" fill="#4fbbb9"/>
  <path d="M16.46,18.32c-.08-.12.09-.23.19-.13.16.15.43.73.53.95,0,.02.03.04.06.05.14-.05.2.09.1.19.15.22.32.42.5.58l.18.05c.15.07.2.15.14.24,0,.18-.04.35-.14.53,0,.02,0,.04,0,.05-.02,0-.07-.02-.09,0-.05.07.11.22-.25.09,0-.11.09-.12.08-.24-.01-.13-.1-.13-.11-.16-.05-.1-.17-.49-.22-.55-.04-.05-.15-.05-.21-.11-.08-.08-.05-.19-.09-.25-.03-.04-.24-.1-.3-.23-.08-.17-.14-.34-.21-.51-.06-.15-.04-.32-.24-.41-.05-.06-.01-.11.1-.14Z" fill="#1c82c5"/>
  <path d="M9.12,14.07l.24-.1c0,.46.34.78.57,1.14.08.13.21.46.29.57.05.06.16,0,.22.08s.04.23.07.3c.02.05.1.06.14.13-.14.14-.49.14-.43-.14-.43-.12-.91-.74-1-1.17-.09,0-.18.03-.26.1-.08.13-.14.01-.14-.1.1-.27.19-.55.29-.82Z" fill="#2d56a3"/>
  <path d="M9.02,15.23c-.05-.08-.07-.15.03-.17.3-.05,1.14,1.31,1.22,1.63.31-.14.41.06.2.29l-.05.18c-.03.14-.05.27-.14.39.02-.07,0-.16.05-.24-.42.11-.53-.55-.67-.81-.17-.31-.41-.48-.55-.7-.05-.08-.19-.41-.17-.49.01-.04.07-.05.08-.07Z" fill="#2d52a0"/>
  <path d="M9.84,12.19c.14-.31.26-.25.25.06l.06.2c.25.24.42.52.51.83.21.19.3.41.38.68.23.08.24.29.16.5.19.04.22.19.09.45-.02.1,0,.27-.14.24-.04-.02-.04-.03,0-.05-.12-.26-.24-.54-.36-.82-.24-.06-.39-.26-.43-.6-.24-.23-.44-.48-.59-.75-.06.06-.12.11-.21.1v.05s-.03.04-.05,0c.11-.29.23-.59.34-.87Z" fill="#2d64ae"/>
  <path d="M10.13,11.66c.11.03.14.14.07.23.05.37.25.69.59.97.06.31.23.53.49.67.03.13.1.2.19.22-.02.15.03.26.15.34-.07.26-.19.6-.34.82.09-.5-.15-.26-.19-.41-.02-.07.1-.21.02-.36-.03-.06-.13-.07-.16-.11-.05-.07-.14-.43-.2-.48-.32-.29-.15-.26-.32-.56s-.55-.41-.41-.92c-.08-.02-.03.06-.05.09,0,0-.11-.07-.14.06.07-.18.12-.39.19-.58.07-.11.11-.08.1.05Z" fill="#2c67b0"/>
  <path d="M13.75,18.36c.11-.02.18,0,.29-.1.08.11-.05.24-.05.27,0,.04.11.06.14.11.07.11.17.49.21.55.06.08.22.01.29.09.07.07.05.28.1.38.04.09.21.2.29.29.18.25.36.52.53.77.18.27.36.53.41.86-.06,0-.13,0-.19,0-.13,0-.21-.14-.24-.41-.3-.22-.51-.52-.63-.91l-.18-.17c-.05-.18-.11-.34-.18-.49-.19.26-.26.05-.32-.16,0,.06-.03.09-.09.11-.18-.37-.29-.78-.43-1.16-.02-.07-.02-.08.05-.05Z" fill="#2c64ae"/>
  <path d="M9.55,13.01c.16-.08.27.02.34.29.06.19.18.32.34.38.07.23.22.43.44.58.03.14.11.22.22.23.05.24.13.43.25.59,0,.02,0,.03,0,.05-.04.21,0,.49-.19.68-.27-.37-.5-.77-.69-1.19l-.35-.47c-.28-.27-.43-.5-.51-.84.02-.04.04-.08.05-.1l.1-.14s0-.04,0-.05Z" fill="#2b5ea9"/>
  <path d="M2.16,11.85c.19-.15.17.12.21.22.02.05.03.07.05.13.05.14.19.64.28.7.04.03.12,0,.13.01.03.03-.05.18-.04.19.01.02.14.02.18.13.04.14-.02.33,0,.47,0,.04.15.32.19.41.12.03.18.14.18.32.22.06.2.22.16.4.08-.23.32-.16.29.08-.16.22-.15.47.03.75-.05.16.04.29.18.17l.09.1c-.07.23-.01.44.18.64.07.14.12.36-.09.34,0,.01,0,.03,0,.05-.06-.02-.1-.09-.14-.19-.6-1.56-1.44-3.35-1.88-4.92Z" fill="#2b4294"/>
  <path d="M24.57,9.39c-.02-.06.04-.12.09-.13.23-.06.42-.05.52.16.11.22.1,1.67.07,2l-.06.1c-.17-.01-.36,0-.53,0h-.48c0-.15.17-.18.24-.05,0-.08.04-.12.15-.09.03-.21.09-.37.19-.55-.12-.22-.15-.47-.09-.77-.15-.14-.15-.27.06-.34.06-.17-.04-.22-.3-.17l-.06-.1c-.04-.11.11-.08.19-.05Z" fill="#4ebbba"/>
  <path d="M28.83,10.21c.17.09.88.45.94.58.07.14-.16.57-.27.68,0,0-.13,0-.12.1-.04-.08-.21-.09-.24-.14-.07-.1,0-.5-.02-.53-.02-.02-.32.01-.39,0,.11-.44-.14-.24-.43-.24-.03-.31.27-.25.39-.31.07-.03-.09-.17.14-.12Z" fill="#5ebeb6"/>
  <path d="M10.13,11.66c-.06-.03-.04-.1.03-.12.23-.07.93,1.27,1.05,1.51.16.07.23.17.23.29.24.15.34.31.24.59,0,.1-.04.11-.05.14-.29-.03-.32.02-.19-.29-.29.03-.15-.04-.21-.18-.03-.06-.32-.22-.36-.27-.05-.07-.05-.23-.11-.35-.14-.27-.47-.42-.59-.76,0-.02-.06-.33-.06-.35,0-.04.1-.13.03-.22Z" fill="#2a6bb3"/>
  <path d="M21.72,19.09c.05.03.1.07.14.1.05-.03.07,0,.05.05.27.12.08.48-.14.29-.03.05,0,.1.01.15.28.07.34.14.18.19-.05.05-.12.08-.19.1l.1.09c-.07.55-.04,1.06.09,1.51.18-.09.28.06.1.1-.11.03-.24.01-.39-.05-.24-.05-.28-.08-.48-.14.15-.2.19-.38.22-.63-.03-.51-.04-1.03-.03-1.54.07-.07.12-.13.15-.19-.1.03-.18.03-.14-.1-.04-.01-.04-.03,0-.05.11.04.24.11.34.14Z" fill="#0c76ba"/>
  <path d="M8.97,14.99s.02-.15.04-.17c.05-.03.27-.04.29-.02.02.02.07.35.11.42.09.13.53.62.67.71.06.04.18.02.22.07s.01.18.02.2c.01.01.27-.07.34,0,0,.01,0,.07,0,.1.1-.05.11-.08.1.05-.09.26-.18.6-.34.82.01-.06-.02-.14,0-.21,0-.02.18-.09.1-.18-.09-.1-.28.06-.29.05-.04-.03-.32-.69-.39-.8s-.4-.58-.46-.65c-.05-.06-.27-.16-.34-.24-.05-.01-.01.08-.02.1-.03-.03-.06-.07-.1-.1-.09-.09-.09-.16.05-.14Z" fill="#2d55a2"/>
  <path d="M14.14,19.57c-.02-.07.01-.16-.05-.24.22.11.07-.07.24-.05-.07.14.07.23.05.39.09.02.02-.11.05-.14.01-.01.15-.01.18,0,.05.03.1.4.16.49.05.08.15.09.21.18.11.15.16.43.3.62.09.13.3.25.34.31.07.1.05.35.16.47-.02,0-.04.03-.05.05-.1,0-.19,0-.29,0-.08-.07-.14-.16-.18-.28-.19.07-.34-.07-.27-.27-.18-.04-.25-.12-.22-.22-.24-.05.09-.32.07-.3-.23.22-.29-.33-.26-.54-.08.04-.17.05-.25.02-.06-.16-.15-.31-.19-.48Z" fill="#2c61ac"/>
  <path d="M15.2,18.7s-.01.06,0,.08c.05.04.25,0,.33.08.06.06.03.15.06.2.01.02.09.03.11.11,0,.05-.03.29.1.3.06,0,.15-.06.16-.05.01.01-.01.11,0,.16.01.04.1.03.1.06,0,.07-.07.17-.05.21.02.04.33.12.33.17l-.09.1v.07c.2-.03.16.12.22.19.09.11.09-.07.17.21.02.06.09.02.1.06.02.12-.08.06-.09.07-.08.09.07.1.08.11.03.07.2.34.2.36.03.08-.03.17.05.28.12.18.39.06.54.16-.24,0-.48,0-.72,0,.05-.06.01-.1-.1-.11-.15-.55-.36-.95-.79-1.32l-.03-.13c-.19-.02-.22-.14-.19-.3-.18,0-.32-.29-.19-.4-.14-.15-.39-.41-.46-.6,0-.02.04-.05.07-.07.03,0,.09,0,.1,0Z" fill="#286fb6"/>
  <path d="M24.33,9.49c.19.02.34.3.14.44l.13.82c.01.29-.06.48-.17.72-.12,0-.17.04-.24.05-.16.02-.34.02-.48.05-.04-.01-.04-.03,0-.05.04-.06.1-.12.19-.18v-.4c.23-.27.16-.74.1-1.09-.19.06-.4.07-.58.02.07-.14.28-.11.39-.24.02-.19.39-.26.53-.14Z" fill="#3db9bc"/>
  <path d="M19.99,18.12c.15.11.33.23.48.34.06.06-.02.19-.1.19-.08.09-.06-.08-.06-.07,0,.15-.05.21-.18.31.03.09-.01.13-.12.14.02.55.03,1.1,0,1.66l.06.09.09.06c.11.01.4.26.06.23-.23-.11-.32-.17-.53-.29-.01-.08-.04-.18-.08-.3l.13-.52c-.1-.23-.12-.4-.03-.64-.07-.06-.14-.08-.21-.08-.01.04-.03.04-.05,0,0-.2.13-.36.19-.53.13-.11.17-.27.14-.48,0-.02.04-.03.05-.05.04-.07.09-.12.14-.05Z" fill="#225aa6"/>
  <path d="M23.66,9.2c.05.06-.31.1-.29.1.19-.07.65-.09.77.05.11,0,.18.04.19.1.04.01.04.03,0,.05-.2-.02-.35.1-.53.14-.27.07-.46.06-.74.04-.2-.02-.42-.04-.62-.08l.05.14s-.42-.1-.5-.1c-.03,0-.03.07-.04.08-.06.02-.11,0-.16.03-.02,0-.01.09-.04.08-.06-.02-.12-.11-.24-.1-.03,0-.02.08-.1.11-.06.02-.27.11-.32.04.54-.28.9-.4,1.5-.53.21.02.41-.02.63-.1.11-.01.28-.09.43-.05Z" fill="#55bdbd"/>
  <path d="M26.07,14.55c.08.02.14.02.24.05l.07.11c-.18.66-.1,1.46-.03,2.15.15.16.04.2-.32.11-.05.02-.11.02-.19,0-.05-.02-.12-.03-.19-.05.07-.01.2.04.25-.03.15-.21-.02-2,.04-2.38.06-.01.12,0,.14.05Z" fill="#32b7be"/>
  <path d="M10.23,11.17c.1.03.08.23.1.24,0,0,.06-.04.07-.04.04.02.02.07.03.07.03,0,.08-.04.09-.03.03.03-.05.17-.04.25.04.24.25.16.28.18.02.02.09.45.11.47s.11,0,.16.05c.07.07.09.31.13.33.05.03.17-.01.19,0,0,0,0,.18.02.24.06.2.33.5.56.53-.09.12-.1-.04-.14.14-.02.1,0,.21-.1.29,0-.01-.02-.23-.03-.24-.05-.12-.27-.25-.3-.31-.03-.05,0-.14-.02-.17-.02-.02-.11,0-.16-.06-.13-.12-.33-.65-.44-.82-.07-.11-.27-.4-.36-.51-.02-.02-.19-.2-.2-.21-.02-.01-.04.04-.04.04-.03,0-.07-.04-.1-.05.06-.15.14-.3.19-.43Z" fill="#296fb6"/>
  <path d="M10.86,10.55l.12.02c.27.28.52.65.57,1.04.22.1.71.96.72,1.14,0,.05-.02.09-.05.12.09.06.1.11.05.14-.39-.04-.22-.37-.24-.39-.01-.01-.16,0-.26-.15-.05-.07-.3-.42-.31-.44-.03-.06.03-.12.01-.18-.03-.09-.21-.21-.26-.28-.05-.07-.14-.28-.15-.29-.05-.03-.17,0-.19,0s0-.34-.05-.46c-.02-.05-.08.04-.14-.05-.11-.17-.02-.3-.1-.46,0-.02,0-.03,0-.05.29-.11.2.08.29.29Z" fill="#217abf"/>
  <path d="M29.36,15.76l-.11.05c.09,0,.03.13.06.19-.1-.07-.25-.02-.34-.07-.05-.03-.09-.18-.17-.22-.11-.05-.08.16-.13.19-.14.09-.44-.15-.52.06,0-.02-.15-.05-.09-.14,0,0,.09,0,.09-.03,0-.06-.07-.13-.09-.2-.02-.08,0-.16,0-.22-.01-.05-.08-.01-.1-.06-.04-.11.14-.04.1-.17.06.03.19.13.24.07l-.29-.22c.49.2.94.43,1.35.77Z" fill="#5bbeba"/>
  <path d="M20.37,18.65c.1-.05.12.1.08.19.07.12.14.43-.03.47.04,0,.09.02.09.05.02.09.02.81,0,.89l-.1.07c.22-.02.2.48.11.63l.04.12c.05-.15.32-.07.29.1.11.09.1.14-.05.14-.23-.09-.34-.13-.58-.24l.1-.02c-.1-.12-.29-.07-.24-.27-.03-.06,0-.11.06-.17-.05-.47-.08-.93,0-1.4-.07-.15-.07-.25,0-.31-.03-.33.17-.07.15-.34h.05s.05.1.05.1Z" fill="#2060ab"/>
  <path d="M12.64,15.61c-.01-.08-.05-.44.15-.32.02.01.17.32.18.35,0,.07-.05.15-.03.23.03.1.27.11.29.13.01.01-.1.25-.05.34,0,0,.09-.04.1-.05h.07c.11.38.25.66.52.96l-.06.1c-.08.09-.16.09-.24,0-.04-.13-.13-.05-.14-.05-.03-.04-.04-.19-.13-.24-.07.04.01.14.02.19-.01.04-.03.04-.05,0-.18-.45-.55-1.18-.63-1.64Z" fill="#2b6ab2"/>
  <path d="M23.8,9.2c.44-.06.91-.04,1.35,0,.02,0,.03,0,.05,0-.03.1.1.18.1.19.1.03.15.1.06.17.07.1.11.35-.01.39.14.09.07.58,0,.72.09.15.09.36,0,.6,0,.06,0,.13,0,.19.11,0,.19-.04.3-.04.04,0,.24.01.23.09-.18.15-.45.06-.68,0-.05-.08-.05-.17-.05-.26-.02-.53.1-1.24-.03-1.71-.06-.19,0-.27-.33-.26-.07,0-.03.08-.22.1-.15,0-.29-.02-.43-.05-.26-.02-.51-.07-.77-.05l.29-.1s.1,0,.14,0Z" fill="#57bdba"/>
  <path d="M25.88,19.57c.18-.01.35-.02.53-.05.03.21-.4.16-.43.19-.01.11.06.13.14.14.22.05.11.2-.08.22,0,.47.01.95.04,1.44l-.06.09c.22.22-.03.32-.23.38-.05.03-.1.03-.14,0-.3-.24-.16-.35.1-.53v-.63c-.3-.09-.24-.66-.13-.9.13-.06.09-.16-.11-.31.11,0,.24-.04.39-.05Z" fill="#29b7c1"/>
  <path d="M9.41,13.3c.12.03.08.17.13.24.2.31.56.67.79.99.2.28.21.46.36.74.05.09.19.17.21.32.06.04.14-.15.05.22-.01.05-.04.08-.05.1.05-.21-.1-.12-.13-.15-.12-.13.06-.06-.18-.15-.17-.06-.08-.26-.11-.36-.03-.08-.13-.13-.18-.21-.18-.33-.47-1.14-.9-1.15-.13.02-.14,0-.05-.1.02-.08.22-.29,0-.39.01-.03.04-.06.05-.1Z" fill="#2d5ca8"/>
  <path d="M15.2,19.18c.04-.09.11-.05.21.13l.08.07c.04.09.1.27.11.28.02.03.13,0,.16.05.05.06,0,.19.03.24.02.03.15.02.18.06.02.03,0,.13.06.21.1.17.27.21.34.29.17.21.33.74.44,1,.02.05.21.01,0,.13-.13,0-.26,0-.39,0-.03,0-.05-.02-.05-.05v-.05c-.08-.07-.05-.1.05-.05.09-.19-.07-.55-.23-.67-.19-.29-.41-.57-.66-.83-.11-.16-.44-.67-.31-.81Z" fill="#296cb4"/>
  <path d="M20.61,18.56c.1.02.17.07.19.14l.17.13c-.03.69-.03,1.4-.01,2.11,0,.1,0,.19-.11.22-.07-.08-.24-.07-.29-.1-.06-.08-.04-.17.04-.28-.07-.58-.15-1.26-.03-1.87-.2,0-.18-.4,0-.41.02.01.03.04.05.05Z" fill="#1b66b0"/>
  <path d="M16.7,17.74s.04-.02.07-.02c.04,0,.48.54.52.61.16-.04.24.07.23.32l.25.38c0,.15.06.44.24.3.01-.35.32.11.18.35.15-.01.21.03.16.18v.05s-.03.09-.05.14c-.04.1-.08.17-.14.19-.13-.19-.12.09-.14-.24-.1-.02-.13-.1-.1-.24-.08-.1-.18-.17-.31-.21-.17-.22-.25-.45-.32-.71-.13-.23-.28-.43-.44-.57-.06.16-.28-.09-.3-.16-.02-.06.06-.41.15-.37Z" fill="#128bcb"/>
  <path d="M4.48,10.6c-.11.01-.05.13-.06.14-.18.19-.26-.05-.28-.07-.04-.02-.11.03-.17.02-.06-.02-.06-.1-.11-.14-.04-.04-.12,0-.16-.08-.06-.1,0-.22-.01-.31,0-.03-.05-.07-.06-.11,0-.05.04-.13.02-.19-.03-.08-.15-.04-.14-.13h.58c-.15.15.13.38.1.1.1.26.19.52.29.77Z" fill="#2c4d9c"/>
  <path d="M26.31,14.6s.1-.02.16,0c.04.01.06.14.18.1l-.15.05.05.14c-.35,0-.05.15-.05.17.03.14-.07.11-.08.13-.07.15.03.32.03.45,0,.24-.14,1.09.03,1.23.07.06.14.03.17.04.01,0,.03,0,.05,0v.1c.17.08.23.15.19.24-.05,0-.1,0-.14,0-.04-.02-.07-.04-.1-.05-.21-.09-.42-.17-.63-.24.13.03.05-.12.17-.1.04,0,.02.15.17.1l-.1-.05c-.02-.09-.05-.17-.05-.26-.03-.47-.05-1.33,0-1.79.01-.11.08-.17.1-.26Z" fill="#39b8bc"/>
  <path d="M20.95,18.75c.13.06.31.14.43.19v.11c-.17.09-.23.31-.19.49-.07.47-.12.92-.06,1.41-.06.16-.04.28.05.35.11-.1.18.05.04.09l-.33-.04s-.07-.04-.1-.05c.03-.05.04-.09.05-.14.14-.66-.08-1.44.03-2.11.03-.18,0-.2-.08-.35.03-.03.08-.02.14.05Z" fill="#1a6bb3"/>
  <path d="M24.91,19.67c.03.07-.06.12-.1.05-.07.05-.13.1-.19.12.05.58.05,1.16.02,1.75.25.02.34.28.12.39-.01.02-.04.04-.1.05-.02,0-.03,0-.05,0l-.14-.05c-.07.01-.1-.03-.11-.12-.18-.01-.34-.2-.13-.27.03-.05.06-.05.1,0,.04-.59.01-1.17-.1-1.74-.14.15-.28-.02-.15-.18.04-.06.71-.03.83,0Z" fill="#00a6c2"/>
  <path d="M19.5,19.23c.02-.15.14-.05.05-.24h.14c.04.06-.16.31.15.19-.02.12-.11.4-.1.5,0,.07.08.12.09.24.02.14-.13.42-.13.59,0,.08.21.27-.01.25-.09-.05-.17-.07-.29-.14-.09-.12-.11-.27-.06-.45l-.06-.06c0-.3.06-.6.21-.89Z" fill="#2157a4"/>
  <path d="M25.49,19.62c.07.14-.2.26-.29.14-.07.5-.1,1.09-.05,1.62.34.05-.04.44-.14.21-.04-.03-.1-.06-.2-.09-.11-.5-.14-1.02-.09-1.57-.13-.15-.09-.18.09-.22.04,0,.08,0,.1-.05.12-.03.25-.05.39-.05.06,0,.13,0,.19,0Z" fill="#00aec4"/>
  <path d="M21.53,19.09s.15-.01.1.07c-.03.05-.12.06-.13.08-.08.13.03,1.3.02,1.55,0,.15-.11.32-.03.51h-.14c.1.14-.03.11-.14.15-.1-.03-.18-.06-.29-.1h.34s-.05-.04-.05-.05c-.08-.02-.08-.09-.02-.19-.02-.23.02-.38.12-.47-.04,0-.09-.02-.1-.04-.01-.14-.03-1.23,0-1.28l.09-.07c-.14-.15.09-.22.24-.17Z" fill="#0f71b7"/>
  <path d="M20.56,18.51c-.19.4.02.27.09.34.05.06-.04.35-.04.45-.02.49.05.98.04,1.46,0,.09-.13.18-.08.3-.18-.1,0-.28,0-.29,0,0-.09.01-.09-.02,0-.02.05-.08.04-.14-.01-.1-.09-.26-.09-.3v-1.01c0-.14.02-.52-.14-.51-.01-.09.11-.03.15-.05.02-.01-.05-.08-.05-.1,0-.08.05-.13.1-.19.02.01.06.02.1.05Z" fill="#1d63ad"/>
  <path d="M16.75,17.54c.1.05.23.14.33.25.35.21.56.49.63.84.19.17.29.41.3.7.01.24-.27-.02-.29-.07-.04-.07.01-.12,0-.16-.03-.06-.27-.41-.28-.43-.02-.07.01-.24,0-.26s-.13.02-.18,0c-.04-.02-.41-.54-.54-.67-.08.07-.11.05-.1-.05.02-.03.03-.03.05-.05.01-.04.04-.07.1-.1Z" fill="#0c8dcc"/>
  <path d="M25.3,19.62c-.1,0-.26.04-.39.05-.28.03-.55-.02-.82.1,0,.07.08.05.14.1.11.53.14,1.08.1,1.64-.08.15-.29,0-.34-.14v-1.21c-.17-.25-.16-.41.05-.48-.04-.02-.04-.03,0-.05-.04-.01-.04-.03,0-.05.41.02.83.08,1.26.05Z" fill="#059fbf"/>
  <path d="M23.08,13.97s.11-.01.14.05c.08.02.13.05.14.1.04.01.04.03,0,.05.08.02.04.06,0,.1.07.03-.07.14-.12.15,0,0,.05-.03.07.04,0-.04.02-.04.05,0,.04,0,.08.02.09.05.02.06-.08,1.24-.1,1.36,0,.14-.04.22-.14.23-.24.07-.23-.53-.2-.72.16-.2.19-.66-.02-.82.1-.2.03-.32-.21-.38v-.11c-.08-.07-.06-.11.04-.1.07,0,.15,0,.24,0Z" fill="#0090be"/>
  <path d="M19.5,19.23c-.03.29-.11.54-.14.8-.01.13.05.03.1.02-.02.07,0,.27,0,.32s-.11,0-.09.07c.17-.02-.02.1.14.13l-.09.07c-.08-.05-.42-.22-.43-.27l.48-1.13h.05Z" fill="#2653a0"/>
  <path d="M22.06,11.08c.29-.29.56-.36.48.15.08.04.09.14,0,.18-.04.11.04.21.25.31v.07c-.07.02-.13.07-.2.1-.12.01-.23.05-.34.13l-.05-.04c-.07,0-.08-.06-.05-.19,0-.09.04-.15.1-.19-.04-.01-.04-.03,0-.05-.09.01-.11-.02-.05-.1-.16-.03-.14-.12.04-.28-.14.11-.26.23-.36.35l-.12-.02s-.03.04-.05,0c-.04-.01-.04-.03,0-.05.13-.15.14-.25.34-.39Z" fill="#1499be"/>
  <path d="M15.25,15.71s-.03.04-.05,0c-.2-.12-.31-.4-.24-.63-.03,0-.06,0-.07-.01-.09-.08-.19-.52-.22-.66-.1-.01-.21-.25-.26-.37-.09-.21-.25-.59-.18-.79-.17-.09-.31-.45-.24-.63-.14-.15-.19-.28-.14-.39-.11-.07-.07-.11.05-.1.46,1.19.9,2.38,1.35,3.57Z" fill="#378fc0"/>
  <path d="M14.77,20.87c.05.08.33.13.34.15.03.04-.15.25.06.28.04,0,.09-.05.16,0,.04.03.18.27.12.34-.18,0-.35,0-.53,0,0-.22-.18-.41-.2-.62-.05-.13-.04-.18.05-.14Z" fill="#2d5faa"/>
  <path d="M22.74,10.55c.04-.05.08-.07.13-.06.1.06.05,1.05-.04,1.17.06-.03.11-.03.14,0,.01.04-.02.07-.1.1-.03.01-.06.04-.1.05-.1-.08-.34-.14-.39-.27-.03-.07.09-.1.14-.12.04-.26.02-.5-.05-.72-.04-.1.19-.24.24-.14Z" fill="#009fc0"/>
  <path d="M15.25,15.71c.04.1.13.25.18.37.29.76.57,1.52.83,2.28l.14-.05s.03-.04.05,0c-.03.05-.07.09-.1.14-.05-.02-.13-.03-.19-.05l-.09-.07c-.13-.39-.28-.77-.47-1.13l.03-.11c-.09-.21-.17-.42-.24-.63-.19,0-.16-.16-.1-.31-.13-.04-.18-.36-.09-.45h.05Z" fill="#2983c4"/>
  <path d="M16.7,17.74c-.09.04.01.15,0,.21,0,.03-.11.03-.1.05.02.1.13.1.15.17l-.1.05c.08-.03.14.03.19.05.13,0,.19.15.2.27.18.05.33.46.18.65-.13.14-.08-.02-.1-.07-.12-.27-.24-.33-.36-.51-.04-.06-.07-.23-.08-.24-.02-.01-.14.08-.19-.02l.14-.07c-.06.02-.19-.06-.19-.05-.01.01.01.08,0,.1h-.05c.05-.16.12-.49.19-.63.05,0,.07.02.1.05Z" fill="#1e86c7"/>
  <path d="M14.33,20.05l.1-.12.07.07.12-.24c-.09.23.04.18.05.22.03.11-.03.27,0,.37.01.06.17-.02,0,.22l.1-.1c.22-.04.1.08.19.22-.31.04-.17.07-.19.17,0,.03-.05.06-.05.14-.18-.3-.27-.64-.39-.97Z" fill="#2f5faa"/>
  <path d="M21.34,12.86v.05c-.19.28-.37.57-.53.87l-.15.22c-.07.08-.11.03-.09-.08-.05-.15.07-.63.24-.68l.22-.43.07.1c.05-.19.23-.26.24-.05Z" fill="#1d76b2"/>
  <path d="M23.17,10.11c.04-.12.26-.24.35-.09-.05.46-.05.92-.02,1.36.11,0,.18.05.21.12v.05s-.09.04-.14.05c-.06-.01-.13-.01-.19,0-.07.05-.14.04-.1-.05l-.09-.12c-.03-.25-.05-.71-.04-.96,0-.06.07-.23.09-.27,0-.02.03-.04.05-.05-.05,0-.08-.02-.1-.05Z" fill="#04b1c2"/>
  <path d="M2.84,9.53s.04.03,0,.05c-.46.01-.9-.01-1.35.1.1.14.09.31.1.48,0,.04,0,.1-.05.1-.03-.08-.27-.7-.24-.72.51,0,1.03,0,1.55,0Z" fill="#304595"/>
  <path d="M27.57,11.95c.03.1-.08.24-.19.24-.31-.15-.66-.21-.97-.39.17-.14.43.13.61.14s.3-.03.55,0Z" fill="#5ebeb3"/>
  <path d="M23.03,21.6c.06-.12.09-.12.14,0,.08-.11.13-.11.14,0,.17.12.37.22.58.28l.05.11s-.09.02-.14,0c-.27-.02-.48-.05-.72-.1-.13-.06-.27-.16-.14-.29.02-.09.05-.08.1,0Z" fill="#2293be"/>
  <path d="M22.45,13.83c-.01.11-.06.12-.14.05-.01.19-.08.18-.14,0-.07.03-.03-.07-.03-.06,0,.08-.01.19-.12.16-.17.06-.28-.09-.1-.19.15-.08-.17-.06-.22.09-.04.13-.09.18-.17.15,0,.04,0,.06-.05.05-.01.03-.03.03-.05,0,.1-.18.1-.33.29-.48.05-.09.08-.13.19-.12.08,0,.45.3.53.36Z" fill="#127bb5"/>
  <path d="M13.9,12.14c-.29.12-.42-.59-.39-.82-.11-.15-.17-.33-.19-.53-.12.04-.12.02-.1-.1-.09-.09-.1-.3-.1-.43-.12.04-.13,0-.05-.1-.02-.06-.02-.11,0-.14.28.71.55,1.42.82,2.12Z" fill="#4496c0"/>
  <path d="M17.43,15.71s.04.03,0,.05c.1.1.05.41-.1.43.1.15.09.21-.05.19.07.16-.05.4-.24.43.07.07.05.11-.05.1.04.08.04.12-.05.1.07.11.03.19-.1.14.05-.48.37-.99.53-1.45.01-.04.03-.04.05,0Z" fill="#2f9bc8"/>
  <path d="M28.92,12.57c-.05.1-.06.38-.26.38-.07,0-.48-.31-.6-.38.14-.15.25.06.35.11.28.12.27.04.43-.12.07-.06.08-.17.08.01Z" fill="#60beb3"/>
  <path d="M18.83,18.61s.04.04,0,.1c-.1.43-.33.81-.48,1.21v-.05c-.05-.2,0-.47.1-.63,0-.22.1-.43.29-.63.02-.13.06-.12.1,0Z" fill="#3095c6"/>
  <path d="M24.28,16.48c.08-.12.27.01.24.14.11-.09.11-.09.14.05.08-.13.22-.09.24.05.04-.08.11-.03.14.05.01-.13.04-.11.1,0,.1.03.2.07.29.1-.33-.02-.65-.07-.97-.14-.18-.02-.33-.07-.43-.14-.16-.13.18-.29.24-.1Z" fill="#36a0b9"/>
  <path d="M23.75,19.57c-.29.04-.6,0-.87-.1-.02.13-.04.12-.1,0-.04.1-.09.08-.14-.05-.13.14-.42,0-.53-.14-.07.14-.14.07-.19-.05-.02,0-.03-.04-.05-.05-.04-.01-.04-.03,0-.05.61.22,1.25.3,1.88.43Z" fill="#458bb8"/>
  <path d="M23.08,13.97c-.07.08-.16.02-.24,0-.07.06-.25,0-.29-.1-.09.1-.1.09-.1-.05-.13-.06-.5-.3-.58-.32-.05-.01-.11.05-.15.08.11-.41.37-.01.6.1.18.09.56.23.76.28Z" fill="#3f7ba4"/>
  <path d="M21.58,16.05c.06-.05.06-.02.05.05.15-.11.36-.02.48.1.15-.08.29-.05.43.1.06-.1.27.03.29.1.05.03.03.05-.05.05-.52-.11-.9-.21-1.4-.39.01-.02.03-.02.05,0-.02-.07.03-.07.14,0Z" fill="#3f7eac"/>
  <path d="M18,14.21c.1.11.04.18-.1.19.07.07.06.13-.05.14,0,.16-.02.25-.1.29.05.19.01.27-.1.24.09.18-.01.44-.19.53.03.1.02.13-.05.1h-.05c.2-.56.33-1.16.63-1.69-.02.05.02.15,0,.19Z" fill="#51acc6"/>
  <path d="M23.03,16.43c.07-.03.18-.03.19.05.09-.13.35-.11.39.05.13-.06.21-.06.24,0,.06-.11.19-.09.19.05.14.03.32.12.43.14-.57-.06-1.14-.17-1.69-.29l.05-.05s.1-.02.19.05Z" fill="#4598b7"/>
  <path d="M19.6,16.68s-.03.04-.05,0v-.05l-.07-.1c.07-.04.12-.1.16-.19-.29-.19-.15-.45.19-.48,0-.01.04-.03.05-.05h.05c-.1.3-.23.58-.34.87Z" fill="#34b5c9"/>
  <path d="M7.57,21.6s.04.03,0,.05c-.25-.04-1.63.07-1.72-.05-.03-.04,0-.12-.02-.15.08-.09.06.11.22.14.35.07,1.12,0,1.52,0Z" fill="#363a7e"/>
  <path d="M19.16,17.79c0,.27-.12.3-.19.48-.01.04-.03.04-.05,0-.04-.01-.04-.03,0-.05-.11-.19-.29-.63.05-.39.02-.07.04-.08.05,0,.02-.08.08-.18.14-.1v.05Z" fill="#29a0c5"/>
  <path d="M20.81,13.78c-.13.24-.27.52-.39.77-.04.06-.06.04-.05-.05-.04-.18.06-.45.19-.58.13.11.12-.09.24-.14Z" fill="#3977ab"/>
  <path d="M24.57,14.26c-.2.09-.36.09-.48,0-.02.08-.03.08-.04,0-.13.1-.2.08-.2-.04-.17.03-.33,0-.48-.1-.03,0-.11-.07-.14-.1l1.35.24Z" fill="#469bbb"/>
  <path d="M12.11,9.53s.04.03,0,.05c0,.04-.03.04-.05,0-.11.09-.23.09-.34,0-.09.12-.15.12-.24,0-.03.09-.07.09-.1,0-.13.1-.21.1-.24,0-.09,0-.19-.01-.28,0-.02.17-.14.3-.2.43l.18-.48c.42,0,.85,0,1.27,0Z" fill="#4184b3"/>
  <path d="M21.39,14.26c.07.2-.13.71-.34.77-.02.17-.06.25-.14.24v-.05c.14-.35.26-.63.43-.97.01-.03.03-.03.05,0Z" fill="#2c6eab"/>
  <path d="M22.69,21.6c.01-.1.06-.09.1,0,.06-.12.11-.12.14,0l.14.29c-.1-.02-.18-.03-.29-.05-.06,0-.11-.02-.14-.05-.19-.16-.22-.33.05-.19Z" fill="#2a8abb"/>
  <path d="M25.49,21.98c.06-.12.09-.12.14,0,.05,0,.1,0,.14,0,.11-.08.17-.08.19,0-.46.09-.85.05-1.3.05.01-.05.06-.05.1-.05.05-.14.19-.14.24,0,.13-.16.34-.12.48,0Z" fill="#45b0c2"/>
  <path d="M23.22,9.24l-.48.19.1.1c-.23.04-.1-.13-.24-.19.25-.05.37-.07.63-.1Z" fill="#58bdba"/>
  <path d="M12.11,9.53c.26,0,.53,0,.79,0,.08.02.1.27.13.34-.01.04-.03.04-.05,0-.06.06-.08.03-.05-.05-.08-.03-.12-.1-.14-.21-.27.08-.5.07-.68-.03v-.05Z" fill="#4c90b8"/>
  <path d="M22.06,21.65c.06-.09.14-.07.24.05l.12.02c.05-.12.2-.01.22.08.07.01.12.04.14.05-.37.01-.77-.09-1.11-.24.11.02.27.02.39.05Z" fill="#5686b3"/>
  <path d="M25.59,14.41s.04.03,0,.05c-.04,0-.09-.04-.14-.05-.11.06-.31.14-.34-.05-.03.13-.22.14-.24,0-.04.13-.16.14-.19,0-.1-.02-.1-.08,0-.1.31.04.61.1.92.14Z" fill="#3cb0be"/>
  <path d="M22.06,12.09c-.02.07-.06.13-.14.19-.12.16-.27.31-.43.43.03-.1.06-.21.08-.33h.11c.04-.15.18-.42.39-.29Z" fill="#2b86b2"/>
  <path d="M25.15,9.2c-.43-.01-.93-.02-1.35,0,.05-.08.18-.05.26-.05.35,0,.76-.04,1.09.05Z" fill="#58bdba"/>
  <path d="M8.68,21.65c-.17.09-.81.07-1.01,0,.19-.03.38-.05.58-.05.13,0,.35-.03.43.05Z" fill="#34397d"/>
  <path d="M23.75,19.57c.1,0,.19,0,.29,0v.05c-.14.06-.27.1-.39,0-.07.13-.3.16-.34,0-.12,0-.24,0-.36.01l-.03-.11c-.07.06-.1.04-.05-.05.3.05.57.07.87.1Z" fill="#2590bc"/>
  <path d="M8.83,14.89c.2-.03-.05.12.14.1-.01.05-.05.09-.05.14-.03-.02-.14-.11-.14-.1,0,.19-.12.33-.19.48,0-.23.17-.44.24-.63Z" fill="#2d52a0"/>
  <path d="M19.26,17.54c-.05-.02-.03-.05,0-.1-.13-.05-.02-.32.1-.34-.11-.07-.08-.15.1-.24-.12-.12-.03-.16.1-.19h.05c-.11.29-.15.61-.34.87Z" fill="#4aa1b8"/>
  <path d="M19.79,18.22c.24.24.09.15.05.23-.07.13.09.23-.19.25.06-.15.08-.33.14-.48Z" fill="#2758a3"/>
  <path d="M22.59,11.9c-.24.11-.45.26-.68.39.04-.06.05-.16.14-.19-.01-.02,0-.04.05-.05-.02-.08.04-.11.1-.05.12-.04.31-.19.39-.1Z" fill="#448eaf"/>
  <path d="M9.45,19.62c-.06.14-.1.25-.14.39-.01.04-.03.04-.05,0h-.1c.04-.19.08-.37.27-.43l.02.05Z" fill="#2a4697"/>
  <path d="M26.02,16.97c.15.02.26.08.39.12.1.03.12-.07.24.12-.25-.09-.56-.16-.82-.24.06,0,.13,0,.19,0Z" fill="#43babc"/>
  <path d="M24.57,14.26s.07,0,.1,0v.1s-.02.04-.05,0c-.05.04-.26.11-.35.09-.01,0-.03-.02-.04-.04-.16.08-.28-.02-.14-.14.15.02.33-.02.48,0Z" fill="#1fa0bb"/>
  <path d="M20.9,9.97c.06.07.11.14.1.24l-.34-.1c.08-.05.16-.1.24-.14Z" fill="#5cbebd"/>
  <path d="M3.85,9.53c-.34.03-.66.04-1.01.05v-.05h1.01Z" fill="#2b4b9b"/>
  <path d="M13.75,18.36s-.03.04-.05.05c-.08-.21-.25-.43-.24-.68.1.21.2.41.29.63Z" fill="#2b6ab2"/>
  <path d="M4.33,17.35s-.03.04-.05,0c-.04-.11-.1-.22-.14-.34.01-.04.03-.04.05,0,.2.07.11.23.14.34Z" fill="#2b4294"/>
  <path d="M4.96,18.99s-.03.04-.05,0c-.21-.54-.42-1.1-.63-1.64h.05c.15.55.43,1.1.63,1.64Z" fill="#314494"/>
  <path d="M23.95,21.98c.04-.11.1-.11.14,0,.09-.14.3-.14.39,0,.05,0,.12-.01.14.05-.26,0-.59.05-.82-.05.05,0,.1,0,.14,0Z" fill="#45b0c2"/>
  <path d="M23.37,11.61s.04.03,0,.05c-.14.03-.35.05-.48.1.03-.02.07-.08.1-.1.13-.18.23-.21.29-.1,0,0,.05.05.1.05Z" fill="#0aa6c2"/>
  <path d="M18.92,18.27h.05c-.05.12-.03.33-.14.43,0-.03,0-.07,0-.1-.07-.04-.07-.1,0-.19-.09-.14-.08-.32.1-.14Z" fill="#3da0cf"/>
  <path d="M8.25,21.6c-.18.01-.38.04-.58.05-.02,0-.06.05-.1,0v-.05h.68Z" fill="#2f3882"/>
  <path d="M27.62,18.56c.1.01.09.06,0,.1-.1.15-.15.22-.29.34.03-.14.22-.3.24-.43h.05Z" fill="#51bcba"/>
  <path d="M19.99,15.32c.07-.07.1-.04.05.05.08,0,.04.09,0,.14,0,.09-.04.11-.05.14.04-.19-.32-.24,0-.34Z" fill="#3ab8d0"/>
  <path d="M5.59,20.78c-.12-.13-.17-.35-.19-.53.09.21.12.32.19.53Z" fill="#354593"/>
  <path d="M8.92,21.02c.12-.34.23-.67.34-1.01h.05c-.08.22-.14.5-.22.72-.04.1-.09.21-.17.29Z" fill="#354593"/>
  <path d="M26.12,14.5l-.05.05s-.09-.04-.14-.05c-.12-.02-.22-.03-.34-.05v-.05c.2.03.34.06.53.1Z" fill="#53acb1"/>
  <path d="M7.38,18.27l.1.05.15-.29c-.04.11-.04.28-.14.36-.08.06-.08-.1-.1-.12Z" fill="#354694"/>
  <path d="M20.13,15.28c-.13-.04-.13-.09,0-.14.01-.04.03-.1.05-.14,0-.05.02-.08.05-.1.01-.04.03-.04.05,0-.04.19,0,.21-.14.39Z" fill="#6ba2be"/>
  <path d="M28.73,21.16c-.34.21-.49.29-.87.43.06-.08.16-.1.24-.14.2-.09.4-.17.58-.29h.05Z" fill="#59beba"/>
  <path d="M18,20.78c.05-.14.09-.4.14-.53.02-.05.11-.14.14-.19-.09.21-.12.53-.29.72Z" fill="#3c85bc"/>
  <path d="M20.95,18.75s-.09-.02-.14-.05c-.08-.04-.13-.1-.19-.14.13,0,.26.08.34.19Z" fill="#2e629d"/>
  <path d="M5.16,19.62c-.16-.16-.17-.44-.24-.63h.05c.07.2.12.42.19.63Z" fill="#374593"/>
  <path d="M20.9,15.28c.14.08.07.31-.1.34-.01.03-.03.03-.05,0,.04-.18.09-.24.14-.39v.05Z" fill="#4f71a3"/>
  <path d="M2.16,11.8c-.12-.09-.11-.26-.14-.39.12.09.11.26.14.39Z" fill="#304696"/>
  <path d="M13.42,17.64c-.07-.15-.09-.26-.14-.39h.05c.03.13.09.25.1.39Z" fill="#3f6db2"/>
  <path d="M1.97,11.27c-.18-.24-.26-.58-.34-.87.12.29.24.56.34.87Z" fill="#304696"/>
  <path d="M20.81,15.61c.06.09.15.15.27.18l.02.11s.04.03,0,.05c-.12-.05-.26-.08-.38-.15-.05-.08.03-.15.04-.19h.05Z" fill="#4869a4"/>
  <path d="M13.08,10.02v.14c-.15-.02-.21-.19-.1-.29h.05c.02.05.03.11.05.14Z" fill="#3297c7"/>
  <path d="M21.48,14.07c.06.11.03.2-.1.19h-.05c.03-.07.06-.13.1-.19h.05Z" fill="#2275b6"/>
  <path d="M7.86,17.54c-.03.07-.05.18-.14.14.06-.17.14-.38.24-.53-.03.1-.06.29-.1.39Z" fill="#2c4999"/>
  <path d="M27.52,21.69c-.09.03-.2.13-.34.1.09-.03.2-.13.34-.1Z" fill="#51bcba"/>
  <path d="M16.85,17.16c.17-.05.16.27-.01.2-.02.09-.04.15-.09.19-.04.17-.05.06-.1.1,0-.19.11-.33.19-.48Z" fill="#0a94ce"/>
  <path d="M20.42,14.55c-.03.06,0,.15-.1.19-.02-.02-.02-.05,0-.1-.07-.07-.05-.13.05-.14l.05.05Z" fill="#5789af"/>
  <path d="M4.19,16.97v.05h-.05c-.03-.07-.07-.16-.1-.24l.14.19Z" fill="#2a4596"/>
  <path d="M20.32,14.75c0,.09-.04.11-.05.14h-.05c-.04-.08,0-.23.1-.24,0,.03,0,.06,0,.1Z" fill="#4eb7ce"/>
  <path d="M23.56,11.61c-.06.01-.13.04-.19.05v-.05s.15-.12.19,0Z" fill="#04adc3"/>
  <path d="M21.34,12.91v-.05c-.1-.1-.04-.17.1-.14.01-.03.03-.03.05,0-.05.07-.12.15-.14.19Z" fill="#4b85b4"/>
  <path d="M20.03,15.52s0-.12,0-.14c-.04-.09,0-.13.1-.1-.02.09,0,.18-.1.24Z" fill="#4eb7ce"/>
  <path d="M21.19,15.9c.05-.05.09-.03.1.05.06.04.04.06-.05.05-.04-.02-.09-.03-.14-.05v-.05s.06-.03.1,0Z" fill="#336498"/>
  <path d="M9.55,13.06c-.02.06,0,.12-.1.14.02-.04.03-.09.05-.14h.05Z" fill="#2c61ab"/>
  <path d="M19.99,18.12l-.14.05s0-.11.07-.14c.04.02.05.08.07.1Z" fill="#586fa3"/>
  <path d="M21.43,16.05h-.05s-.09-.03-.14-.05l.05-.05c.03-.09.18.02.14.1Z" fill="#0d7cbc"/>
  <path d="M16.36,21.6s.04.02.05.05c-.08,0-.16,0-.24,0,.03-.06.14-.06.19-.05Z" fill="#2b6ab2"/>
  <path d="M9.7,19.04v-.07c-.04-.05-.11,0-.1-.08.2.05.11-.13.24-.19-.02.14-.11.23-.14.34Z" fill="#2b4b9b"/>
  <path d="M19.26,17.54c-.01.08-.03.18-.1.24,0-.02,0-.03,0-.05-.17.09-.08-.44.1-.29,0,.03,0,.07,0,.1Z" fill="#39a2c5"/>
  <path d="M21.87,19.14v.05c-.05-.02-.12,0-.14-.1.05.02.1.03.14.05Z" fill="#267fbe"/>
  <path d="M3.17,14.12c.27-.04.3.14.46.29,0-.17.21-.26.32-.12.06.07.07.48.04.57-.01.04-.22.12-.19.25.02.08.22.04.19.34-.01.14-.16.26-.15.34.02.16.2-.06.22-.07.05-.03.13-.04.16-.06.06-.06.05-.22.06-.23.02-.01.4.07.41.1.04.05-.05.15,0,.2s.13.02.17.08c.07.09.08.35.14.48.17.36.61.66.78.96.06.1.03.2.09.3.05.09.27.22.32.31s.04.39.08.42c.04.03.16-.01.24.08.06.07,0,.15.02.22.11.31.38.3.45.42.12.18.17.38.36.65.05.06.04.18.09.23.01.01.29.14.31.15.07,0,.23-.06.25-.04,0,0,0,.12.04.18s.09.11.11.14c.01.02-.31.07-.12.36.09.14.23.12.34.19.1.07.19.26.31.34-.02.03.03.13-.02.15-.2,0-.31-.17-.4-.19-.1-.02-.2.09-.3.02-.24-.15-.13-.63-.36-.8-.15-.02-.03.18-.08.24,0,0-.22.08-.23.08-.22.02-.39-.3-.51-.41-.07-.08-.17-.11-.24-.19-.19-.22-.24-.52-.4-.76-.07-.32.22-.22.33-.45-.22.02-.2-.18-.3-.31-.25-.33-.11.38-.14.4-.1.1-.22-.16-.26-.19-.52-.41-.42-.53-.73-1.01-.04-.06-.16-.08-.19-.15-.05-.11-.01-.27-.02-.39-.26-.08-.04.27-.27.19-.1-.03-.16-.47-.36-.48,0-.04.05-.07.05-.12,0-.25-.24-.36-.27-.63,0-.07.06-.22.03-.26-.01-.01-.1.09-.17,0-.02-.03-.25-.62-.25-.66-.01-.15.18-.28.13-.45-.16-.04-.07.12-.1.14s-.14,0-.17-.05c-.06-.1.03-.19.02-.26-.02-.09-.15-.1-.17-.14-.02-.03-.07-.27-.11-.38Z" fill="#2a4596"/>
  <path d="M25.3,9.39c.28.07.25-.07.34-.12.1-.07.47.13.63.07-.05.16-.21.06-.3.07-.19.04-.37.12-.57.12.16.38.07.7.05,1.08,0,.07.05.15.05.25,0,.14-.11.28-.15.41-.03-.22,0-.39,0-.6v-.72c0-.12.04-.27.04-.28-.02-.09-.09,0-.09-.27Z" fill="#58bdba"/>
  <path d="M28.15,17.64c.12.01.26.02.39,0v.77s.19,0,.19,0v-.68c.25-.06.51-.12.77-.1v1.47c0,.11-.37.06-.39.07-.03.03.03.75,0,.77-.02.02-.16-.03-.19,0-.02.02.01.1-.01.13-.03.03-.12,0-.17.09-.09.17.02.56-.35.55-.07-.08-.09-.2-.04-.38.04-.2,0-.31-.14-.33,0-.3-.01-.6-.06-.89,0-.5.01-1,0-1.5Z" fill="#5cbeba"/>
  <path d="M28.15,19.14c.2.2.04.59.09.79.02.05.14.02.17.07.06.08.03.62-.03.73,0,.02-.03.03-.05.05-.17-.02-.19-.32-.2-.46,0-.39,0-.78,0-1.18Z" fill="#59beba"/>
  <path d="M29.19,20.56s-.07.02-.07.05c0,.03.05.07.03.11,0,.02-.12-.02-.04.1-.34,0-.15-.43-.19-.68.1.01.74-.07.61.15-.06.09-.26.11-.27.12-.03.03-.04.1-.07.15Z" fill="#5cbeba"/>
  <path d="M28.25,20.87c.15.11.34-.01.48.14l.02-.19c.21.05.09.19-.02.24,0,0-.05-.04-.09-.02-.1.04-.3.18-.41.16-.03-.13-.19-.06-.17-.17.02-.14.15-.13.19-.17Z" fill="#59beba"/>
  <path d="M5.25,18.41c.09.09-.05.2-.19.1,0-.08.16-.13.19-.1Z" fill="#2a4596"/>
  <path d="M23.42,9.87c.23-.1.44-.02.63-.19.13.36.13.8.05,1.17,0,.04-.08.04-.09.07-.07.27.17.57-.29.59-.08,0-.11-.02-.1-.06l.02-1.4c-.14,0-.18-.03-.25-.13.02,0,.03-.04.05-.05Z" fill="#2cb7c0"/>
  <path d="M23.37,9.92c.06.02.32.04.34.05.05.05-.04,1.34,0,1.54-.08,0-.19,0-.26-.04-.2-.13.04-1.24-.03-1.5-.02-.02-.21.12-.24.14-.12.15-.2.18-.24.1.16-.12.23-.2.43-.29Z" fill="#19b5c3"/>
  <path d="M21.72,11.46v.05c-.13.27-.29.53-.48.77.04.15-.02.3-.17.44l-.26.52c-.14.25-.15.43-.24.68-.07.2-.13.38-.19.58-.02.05-.03.1-.05.14-.02.07-.07.16-.1.24-.01.04-.04.08-.05.1.01-.07-.01-.17,0-.24-.12-.19.05-.61.24-.72-.08-.03-.04-.23.05-.24-.11-.08-.04-.25.1-.24-.06-.06-.06-.09,0-.1-.07-.11-.04-.23.08-.39.01-.16.07-.25.16-.29.3-.4.5-.89.82-1.28.02-.03.09-.02.09-.03Z" fill="#39b9ce"/>
  <path d="M20.52,12.33c.09-.03.19-.02.29-.05,0,.17.02.31,0,.48-.04.4-.15.41-.24.68-.07.03-.15-.02-.14-.1,0-.07.01-.13.05-.19-.1-.08,0-.12.1-.14.08-.23.02-.44-.05-.68Z" fill="#4cbcbf"/>
  <path d="M22.5,10.69c.09.02.12,0,.15.12.01.08.02.51,0,.57-.01.06-.08.02-.1.03.03-.1-.09-.09-.1-.13-.03-.12.02-.28,0-.4-.12.08-.26.11-.39.19,0-.16.14-.18.24-.24.03-.06.09-.11.14-.14,0-.04.03-.04.05,0Z" fill="#009cbf"/>
  <path d="M23.27,10.16c0,.15-.12.34-.19.14-.07.16-.15.2-.24.1-.07.08-.11.08-.1,0,.06-.05.14-.15.19-.19.09-.01.17-.05.24-.1.04,0,.07,0,.1.05Z" fill="#01aabd"/>
  <path d="M22.84,10.4c.09.13.05.15-.1.14-.05.03-.21,0-.24.14-.02,0-.03,0-.05,0-.01.03-.03.03-.05,0,.13-.16.21-.18.34-.29.03,0,.07,0,.1,0Z" fill="#00a3b8"/>
  <path d="M22.45,10.69c-.03.08-.08.1-.14.14-.01-.1.06-.11.1-.14h.05Z" fill="#009fc0"/>
  <path d="M27.62,18.56c0-.12.09-.28.05-.43.05.05.14,0,.14,0,.09.14,0,.54,0,.72-.04,0-.12.02-.14.05-.07-.04-.05-.17-.05-.24,0-.03,0-.06,0-.1Z" fill="#4fbcbd"/>
  <path d="M28.15,21.16s.03.18-.07.14c-.15-.05.02-.19.07-.14Z" fill="#51bcba"/>
  <path d="M11.39,9.58l.02.2c.22.16.34.47.41.72.18.03.29.17.32.42.25.36.47.73.64,1.12.2.04.32.19.36.45l.21.11c.08.18.15.35.19.53.17,0,.21.21.22.36.26.17.36.37.4.68.09.11.11.12.08.01l.1-.06c.09-.12.17-.04.24.24l.1.05c.02.15.12.58.22.66.02.02.05.02.07.02.08.21.16.41.24.63.02.07.06.13.08.19.01.04-.04.12-.02.14.02.03.11.03.13.09.03.09-.14.24.05.21l-.14.1c.26,0,.4.46.34.68-.19.12-.51-.26-.29-.39-.07-.04-.08-.08-.04-.14-.18-.05-.23-.22-.2-.39-.09.02-.11-.02-.05-.1-.03-.1.01-.18-.02-.24-.04-.06-.32-.2-.35-.26-.17-.28-.19-.6-.47-.84-.02-.02-.1,0-.12-.02-.02-.02-.08-.33-.16-.44-.06-.08-.18-.13-.19-.16-.02-.07.03-.18,0-.25-.04-.07-.47-.48-.52-.57s-.04-.22-.08-.26c-.04-.05-.14-.03-.16-.05,0-.01-.07-.16-.12-.24-.3-.52-.6-.94-.9-1.46-.06-.1-.2-.21-.22-.26-.04-.1,0-.22-.05-.29-.03-.04-.14-.05-.2-.09-.17-.14-.23-.52-.3-.72-.05-.13-.25-.28-.06-.35.08,0,.16,0,.24,0Z" fill="#1986c8"/>
  <path d="M10.86,10.55l.22-.1c.18.15.29.26.39.48.03.06.01.17.03.19,0,0,.07-.05.12,0,.12.11.14.37.21.52.16.34.45.79.7,1.06.04.05.14.03.18.09.06.09.06.27.1.36.11.32.31.5.48.81.13,0,.19.09.1.19-.16.13-.42-.09-.43-.28l-.11-.03c-.15-.37-.36-.7-.62-.99-.13-.29-.33-.71-.51-1.01-.05-.09-.18-.11-.24-.2-.08-.13-.05-.31-.12-.45-.09-.18-.37-.4-.48-.66Z" fill="#1f7ec2"/>
  <path d="M13.27,13.97c.1-.05.12-.01.2.02.3.12.14.14.19.38,0,.02.11.07.15.15.25.54.69.89.89,1.33.06.14.05.45.14.63.14.25.07-.47.22-.39.01.03.03.06.05.1l.07.43c-.02.14-.06.19-.12.15-.17,0-.27-.07-.28-.19-.25-.2-.34-.5-.43-.8-.17-.11-.28-.25-.32-.42l-.22-.07c-.07-.33-.21-.65-.45-.87-.04-.09-.07-.18.01-.25-.03-.06-.07-.14-.1-.19Z" fill="#1f7ec2"/>
  <path d="M26.12,19.86c.16.02.41-.07.48.1-.07-.02-.11.04-.14.05l-.07.12c.05.29-.04.89-.27.36.12.19.13.64.1.87l-.1.07c.17,0,.28.06.34.17.17.03.43-.03.28.18-.26.03-.5.15-.76.2-.06,0-.13,0-.19,0,.06-.09.3-.21.22-.29-.32.1-.03-.14,0-.24.04-.11.05-.58.03-.69,0-.04-.09-.01-.1-.1-.02-.12-.01-.62.05-.68.03-.03.28.04.15-.12Z" fill="#33b8bf"/>
  <path d="M26.46,20c.01.41-.01.82,0,1.23,0,.1.05.19.05.26,0,0-.05.06-.05.1-.09-.01-.19-.05-.29,0,.02-.06-.05-.14-.05-.17v-.94l.19.14v-.6c.01-.06.11-.01.15-.03Z" fill="#37b8bc"/>
  <path d="M12.21,12.86c.25.09.44.35.54.59.04.09.02.23.06.28.05.07.19.03.21.05.02.02,0,.14.05.22.05.07.22.12.29.17.05.09.06.2.09.26s.14.07.17.13c.04.09,0,.19.04.28,0,.01.15.1.16.12.02.05,0,.25.02.27.01.01.18-.03.27.12.03.05,0,.12.03.16.03.05.27.21.27.24.09.45.12.39.34.76.04.06.04.16.05.17.04.03.2-.16.24.1.04.01.04.03,0,.05.12.07.26.26.14.39-.06.13-.19.07-.27-.02-.04-.27-.2-.53-.4-.7-.1-.07-.16-.18-.2-.34-.17-.26-.36-.5-.58-.73-.06-.16-.08-.39-.12-.48-.04-.08-.52-.59-.6-.7-.32-.4-.54-.79-.77-1.23-.03-.05-.03-.1-.05-.14Z" fill="#207cc0"/>
  <path d="M13.75,15.42c.2-.03.23.19.34.31.01.02.08-.01.12.03.09.1.24.56.32.72.03.01.22.1.23.11.09.1-.03.29.26.23-.15.13-.02.41.19.39.04.01.04.03,0,.05.17.12.33.3.3.52.11,0,.18.03.19.11.09.03.09.07,0,.1.04.37.32.38.38.49.04.07.05.24.14.38.05.07.29.18.16.34-.1.03-.19-.06-.28-.28l-.11-.1c-.03-.07-.1-.31-.11-.33-.01-.02-.24-.09-.31-.17-.14-.16-.42-.91-.46-.94-.03-.02-.11,0-.14-.01-.21-.12-.08-.18-.09-.3,0-.03-.27-.42-.34-.56-.02,0-.09.02-.13,0s-.07-.22-.12-.3c-.06-.09-.27-.28-.33-.37-.13-.18-.13-.19-.19-.39Z" fill="#2179be"/>
  <path d="M16.36,19.18c.08.11.13.26.2.35.15.2.52.46.58.65.02.05,0,.13,0,.16-.21,0-.23-.26-.3-.33-.1-.1-.27-.23-.37-.38-.16-.25-.37-.59-.49-.84.2,0,.21.2.29.32.03.04.09.06.1.07Z" fill="#2179be"/>
  <path d="M8.34,16.43c0-.22.1-.29.1-.51,0-.18.21.2.22.22.07.07.18.09.26.17.4.39.54,1.12,1.06,1.38l-.12.05.07.14c-.05.12.02.38,0,.39-.06.04-.12-.07-.17-.07-.06,0-.17.05-.22.02-.04-.03-.03-.27-.08-.34-.03-.05-.15-.05-.22-.12-.23-.23-.29-.69-.41-.85-.05-.07-.14-.06-.18-.1-.1-.08-.12-.22-.33-.19,0-.06,0-.13,0-.19Z" fill="#2c4d9c"/>
  <path d="M25.11,14.36l.09.07c-.06.53-.08,1.06-.05,1.59.14.08.2.18.05.28-.07.08-.02.16.15.25l-.1.07s-.1,0-.14,0l.05.14s-.07,0-.1,0c-.06-.05-.1-.1-.14-.14-.06-.1-.11-.21-.14-.32.06-.08.06-.16,0-.26,0-.53,0-1.05-.01-1.56l.1-.12c.08,0,.16,0,.24,0Z" fill="#00aec4"/>
  <path d="M25.44,14.41c.03.17-.07.04-.09.06-.04.03-.1.2-.11.26-.03.21-.03,1.07,0,1.26.02.11.16.17.14.24-.02.06-.23.09-.19.22.03.04.53.03.39.14-.11,0-.23.03-.34.05.03-.16-.13-.17-.14-.22-.02-.06.11-.17.1-.24-.01-.05-.12-.06-.13-.08-.08-.13.01-1.47.04-1.73.1.01.23.03.34.05Z" fill="#07b2c4"/>
  <path d="M18,14.21c.14.09.08.04.1-.06.03-.15,0-.48.18-.37.08.05.01.69.24.77.05.02.14,0,.15,0,.02.02-.07.26.11.37.05.03.12,0,.16.03.13.08.09.18.13.26,0,.01.15.01.08.11-.01.01-.14-.04-.1.22.01.08.07.06.1.11.04.09.06.26.22.3.05,0,0-.14.1-.18.09-.04.37-.11.35.09-.01.02,0,.09-.05.12-.06.04-.19.01-.2.02-.03.03.05.26.05.34-.15.39-.36.2-.55-.11l-.34-.62c-.37-.29-.61-.64-.71-1.09-.1.03-.14,0-.13-.11.03-.09.08-.16.1-.19Z" fill="#11b5cf"/>
  <path d="M13.8,17.35c.13-.03.13,0,.05.1.14.02.16.06.05.14.09.09.17.18.24.29.15-.08.43.27.51.42.03.28.18.51.46.69.08-.02.18.14.1.19.11.29.15.5.36.77.35.46.66.68.94,1.24.04.08.03.21.1.3-.06,0-.14-.01-.19,0-.13-.05-.21-.21-.24-.48l-.1-.05c-.14-.34-.36-.62-.66-.86-.06-.22-.16-.4-.3-.54-.06-.16-.01-.09-.11-.25-.03-.06-.05-.16-.08-.2-.04-.05-.14-.02-.2-.06-.17-.1-.41-.93-.52-.94-.08,0-.14.04-.19.1-.12-.07-.05-.21-.08-.31-.02-.07-.12-.07-.16-.13s-.02-.14-.05-.19c-.05-.07-.48-.11-.17-.24.09-.04.15-.04.24,0Z" fill="#2b6ab2"/>
  <path d="M15.11,19.57c.26-.02.29.36.39.51s.44.43.54.58c.05.07.04.18.07.22.04.06.14.03.16.05.02.02-.01.47.15.57-.03,0-.05.02-.05.05-.25-.07-.15-.33-.2-.43-.01-.02-.1-.03-.14-.08-.06-.08-.17-.36-.26-.49-.08-.12-.44-.39-.45-.42-.07-.22-.13-.35-.21-.57Z" fill="#2b69b2"/>
  <path d="M19.36,12.04s.06-.12.1-.1c.03.06.04.27.05.28.03.03.17-.02.22.05.04.06,0,.16.02.21.07.17.29.48.38.65.03.06.06.25.12.25.03,0,.03-.11.17-.05.05.02.1.07.14.1,0,0,.02.03,0,.1l-.04.05c-.11-.06-.13,0-.06.19-.02.07-.02.16-.05.24-.07.15-.18.18-.19,0,.29-.23-.02-.23-.04-.25-.03-.03-.01-.24-.07-.28-.03-.02-.12,0-.17-.02-.13-.08-.16-.23-.21-.33,0-.01-.21-.12-.07-.13.09-.01.2.06.17-.1-.17.02-.07-.16-.11-.28,0-.02-.28-.21-.29-.26-.03-.11.09-.27-.08-.33Z" fill="#43bbc4"/>
  <path d="M20.56,13.01c-.04.12-.08.11-.1.14-.36-.09-.21-.18.1-.14Z" fill="#43bbc4"/>
  <path d="M13.27,16.29s0-.19.1-.1c.09.08,0,.42.29.24-.09.26.18.36.24.47.04.08.02.19.06.24.02.03.39.32.46.46.03.05-.04.12-.01.18.06.17.28.31.34.42.13.25.04.42.35.49.02.08.05.18.1.25.11.17.19.21.29.42-.17.01-.15-.22-.29-.19-.03-.09-.05-.12-.1-.19-.27-.19-.43-.43-.48-.73-.26-.22-.42-.46-.51-.71-.13.02-.22-.02-.27-.1,0-.03-.04-.06-.05-.1-.1-.25-.28-.31-.36-.48-.07-.14-.1-.42-.17-.58Z" fill="#296cb4"/>
  <path d="M18.87,12.77c.15.06.09-.26.19-.14,0,0-.02.09.01.13.13.16.39.32.52.52.06.1.06.22.15.33.08.1.36.37.48.42.06.03.14.04.19,0-.08.24-.19.48-.24.72-.16.06-.21.13-.39.08-.17-.05-.1-.2-.15-.26-.03-.03-.13-.01-.16-.06-.06-.08,0-.29-.02-.4,0-.03-.36-.35-.38-.4-.05-.16.04-.46-.01-.61-.03-.07-.13-.08-.16-.13-.05-.07-.01-.16-.02-.19Z" fill="#37b9c6"/>
  <path d="M20.13,15.13s0,.1,0,.14c-.03.04-.07.06-.1.1,0-.03-.04-.04-.05-.05-.04-.06-.15-.02-.07-.15.05-.09.13-.08.22-.05Z" fill="#38b7c4"/>
  <path d="M26.7,16.92c.1.04.24.21.34.27.02.11-.07.07-.14.07-.05-.14-.48-.18-.19-.34Z" fill="#43babc"/>
  <path d="M27.38,15.13l-.34.05c-.08-.3.2-.21.34-.05Z" fill="#4fbbb9"/>
  <path d="M15.35,16.72c-.01.27.16.26.29.39.23.21.21.36.31.63.08.22.2.41.22.67-.11-.04-.21,0-.17-.14l-.31-.29s0-.06,0-.1c-.04-.01-.08-.03-.09-.07-.02-.16-.24-.43-.39-.55,0-.01,0-.03,0-.05-.06-.15-.12-.18-.14-.39.08-.18.27-.43.29-.1Z" fill="#1f7ec2"/>
  <path d="M28.83,12.24c.02.08-.12.47-.24.34-.07-.07.1-.37.24-.34Z" fill="#60beb3"/>
  <path d="M9.36,13.78s.04.07.05.1c-.05,0-.12.07-.19.05l.05-.19.1.05Z" fill="#2d56a3"/>
  <path d="M16.85,18.27s.04-.03.09-.02c.07.02.18.09.24.14-.27.06.15.3.2.43.07.17-.02.32.19.27-.11.18-.02.31.12.43.06.05.15.04.2.1.04.05.01.13.02.14-.18.17-.4-.11-.49-.29l-.09-.1c-.04-.1-.09-.18-.1-.19-.06-.19-.06-.38-.09-.55,0-.05-.1,0-.13-.04-.01-.01-.13-.27-.16-.33Z" fill="#1588c9"/>
  <path d="M17.33,19.38c.13,0,.18.15.23.24l.35.14c.05.07.08-.09.1.24-.03.15-.25.03-.32-.02-.15-.1-.13-.22-.18-.31-.08-.13-.09-.05-.18-.3Z" fill="#1a85c7"/>
  <path d="M9.55,13.01c.05-.11.13-.14.13-.15.01-.03-.07-.14.06-.21.22-.11.08.25.12.31.11.16.54.58.59.69.03.06.07.32.12.41.09.14.25.1.28.14.02.04.01.13.04.18.09.15.12.22.21.38.02.04.03.09.03.14l.1-.05c.05.1-.09.22-.1.24-.26.13-.27-.51-.29-.53s-.15.02-.19,0c-.02-.01-.02-.15-.05-.2s-.31-.27-.39-.39c-.05-.08-.03-.18-.06-.21-.02-.02-.11-.01-.18-.09-.09-.1-.3-.5-.29-.65l-.05.14-.1-.14Z" fill="#2c61ab"/>
  <path d="M24.38,9.44c.11.02.42-.01.43,0,.05.04.04.33,0,.38-.05.04-.16-.05-.13.08,0,.05.08,0,.1.06.04.16-.03.48,0,.67.01.09.09.06.1.1.04.17-.08.25-.13.39-.03.08-.05.34-.06.35-.02.02-.18,0-.24,0-.13-.19.09-.35.09-.56,0-.26-.13-.72-.14-1.02,0-.1.12-.04.1-.14-.02-.11-.15-.15-.15-.27v-.05s.03-.04.05,0Z" fill="#46babc"/>
  <path d="M24.57,9.39c-.06,0-.16-.03-.19.05-.02,0-.03,0-.05,0-.05,0-.15-.07-.19-.1.14,0,.34-.05.43.05Z" fill="#58bdba"/>
  <path d="M21.39,18.99s.11.08.14.1c-.07.09-.24.03-.24.17v1.4c0,.2,0,.29-.02.48,0,.07-.07.13-.07.17-.39,0-.17-.12-.16-.26.03-.25-.05-.66-.02-.97.01-.13.23-.59-.02-.61v-.05c.16.01.07-.24.24-.31-.25-.14-.06-.09.06-.08.03,0,.08-.04.09-.04Z" fill="#186db5"/>
  <path d="M21.97,19.86c.01-.09.05-.09.1,0,.08.05.14.11.2.18v.6c.13.12.14.59.09.76-.12.09-.13.13-.04.2.16-.3.38.22,0,.1-.08-.02-.16-.03-.24-.05l.05-.05c-.06.01-.1-.02-.14-.05v-.74s-.08-.07-.1-.13v-.59s-.08-.05-.1-.13c0,0-.07-.04-.05-.1.08,0,.16,0,.24,0Z" fill="#0a7ebd"/>
  <path d="M21.77,19.96s.18.03.2.08c.04.14-.03.45,0,.63.01.09.09.05.1.14.02.15,0,.42,0,.58,0,.09.05.19-.1.17-.05-.03-.13-.01-.17-.1.04-.12-.04-.23-.05-.31-.03-.36.07-.81.02-1.18Z" fill="#0a7bbd"/>
  <path d="M22.11,19.28l.16.14c.18.02.25.11.1.24.23.11.06.42-.11.2-.01.1-.06.09-.1,0l-.06-.06c-.24-.05-.35-.14-.33-.27.18-.08.23.03.14-.29.04.02.12.03.19.05Z" fill="#0a7ebd"/>
  <path d="M22.16,19.86c-.01.09-.05.09-.1,0-.03,0-.06,0-.1,0,.06-.15-.2-.1-.24-.15-.03-.04-.02-.16.04-.19-.02.24.52.1.39.34Z" fill="#0a7bbd"/>
  <path d="M20.13,18.9c.01.13.09.2.1.27.01.16-.06.48-.05.67,0,.32.09.64.05.96-.07.09-.04-.06-.05-.07-.02-.02-.07.04-.09.05-.05,0-.1,0-.14,0-.03-.04.02-.67.02-.8,0-.17-.11-.91-.03-1.01.04-.05.14-.04.2-.08Z" fill="#205da9"/>
  <path d="M25.49,19.62c.19-.05.32.14.29.31,0,.05-.12.04-.14.11s-.02.6.01.65c.04.05.16.02.17.07.01.05.01.65,0,.72-.03.16-.29.17-.29.24,0,.01.15.16.1.27-.05,0-.1,0-.14,0-.07.01-.36-.22-.37-.25-.01-.04.19-.27.19-.22-.07-.2-.08-.43-.05-.68-.15-.25-.17-.54-.06-.88-.09-.06-.1-.13,0-.18.1-.02.25-.14.29-.14Z" fill="#17b5c4"/>
  <path d="M17.04,17.11s.04.03,0,.05c.11.2.21.41.3.62.38.27.61.6.7,1.01.26,0,.31.18.29.41l.06.03s.03-.04.05,0c-.02.1.04.43-.1.63-.07-.17-.16-.04-.29-.05.03-.21.14-.31.05-.53-.05-.02-.09.05-.1.05-.21.01-.1-.18-.13-.33-.04-.21-.25-.29-.26-.34-.14-.64-.19-.43-.61-.81-.11-.1-.16-.21-.26-.32.06-.24.12-.2.14-.25.01-.03-.04-.1-.04-.14.02-.04.07-.08.1-.14.04-.07.13.03.1.1Z" fill="#0a90cc"/>
  <path d="M24.82,19.72c-.19.09,0,.1,0,.22.01.4-.03.7,0,1.11,0,.07.04.33.06.38.04.13.27.01.14.18l-.03.06c.18.06.25.28.03.32-.08,0-.16,0-.24,0-.12-.13.12-.07.05-.22-.04-.1-.26-.05-.28-.14,0-.02.04-.13.04-.19,0-.22-.04-.43-.04-.63,0-.15.15-.38-.06-.43.24-.02,0-.54.05-.6.02-.03.23-.04.29-.05Z" fill="#00abc4"/>
  <path d="M24.04,19.67s.06.01.05.05c-.4.16-.09.19-.02.29.1.16-.03,1.1.02,1.38.03.14.12.13.24.12.05,0,.05.03,0,.1-.08.05-.07,0-.1,0-.05.14-.15.13-.19,0-.02-.08-.1-.14-.24-.17-.01-.4,0-.8.01-1.19-.01-.17-.05-.4-.14-.41-.02-.17.24-.17.37-.15Z" fill="#009dc1"/>
  <path d="M24.24,19.86s.14.11.15.17c.05.32,0,.9,0,1.26,0,.16.11.21-.05.31,0-.03,0-.07,0-.1-.08-.52-.05-.94-.12-1.4-.01-.07-.06-.2.03-.24Z" fill="#00a3c3"/>
  <path d="M23.95,21.6c.05-.07.07-.09.1,0,.06,0,.13,0,.19,0-.05.19.12.16.24.19v.19c-.13,0-.26,0-.39,0-.11-.08-.24-.14-.39-.16-.36-.16.04-.41.25-.23Z" fill="#059fbf"/>
  <path d="M25.2,19.76c-.02.14.16.09.19.17.02.03-.09.03-.12.07-.04.06-.04.56-.03.66.01.09.09.06.1.1.05.22-.06.54.04.77l-.23.17c.22.02.21.18.34.29-.16,0-.32,0-.48,0,.12-.31-.09-.18-.1-.19,0-.01,0-.14,0-.17.01-.05.06-.02.1-.02.08-.02.21.03.24-.1-.05-.01-.18-.02-.2-.08-.05-.21,0-1.03,0-1.3,0-.08.06-.21.05-.21-.03-.03-.3.02-.24-.15.11-.01.24.02.34,0Z" fill="#09b2c4"/>
  <path d="M24.04,19.62s0,.03,0,.05l-.34.12c.15.03.05.09.06.11,0,.02.07.02.08.04.16.36-.05,1.12.05,1.48.02.06.27.02.15.17-.03,0-.06,0-.1,0l-.06-.05c-.18.03-.24-.01-.18-.12-.02,0-.05,0-.06-.01-.06-.03-.04-1.17-.03-1.31,0-.03.05-.06.09-.07-.21-.09-.33-.34-.05-.41.13,0,.26,0,.39,0Z" fill="#009ac1"/>
  <path d="M23.75,14.26c.05.05.09.12.1.19-.02.58-.03,1.16-.03,1.74.21.13.07.29-.11.29-.1-.05-.16-.11-.19-.19-.13-.02-.12-.06,0-.1-.07-.06-.11-.12-.11-.2-.03-.47-.02-.95.03-1.43l-.07-.11s-.03,0-.05,0c-.03,0-.05-.01-.06-.03-.04-.05.43-.3.5-.17Z" fill="#0098c2"/>
  <path d="M22.79,14.07s.08.1.13.14c.04.03.14.04.16.06.03.05-.01.18,0,.25.01.05.12.05.14.11s.02.53.01.62-.09.06-.1.1c-.03.12-.05.66.1.74.08.04.06.07-.05.1.07.07.05.11-.05.1l.04.06c.15.02.22.07.06.13-.08-.01-.13-.04-.19-.05-.21-.08-.26-.14-.14-.19.03-.07.05-.13.05-.19l-.1-.04c.02-.45.04-.9.05-1.35l.05-.03c-.1-.02-.1-.1-.01-.25-.27-.16-.32-.25-.13-.26-.02-.01-.02-.03,0-.05Z" fill="#008ebf"/>
  <path d="M23.37,14.46c.09,0,.18-.02.24.07.02.04-.09-.01-.1.09-.03.24-.04,1.24,0,1.45.01.06.13,0,.15.05-.04.06-.08.06-.14.07-.05.08-.31.11-.34,0,.02-.03.04-.07.05-.1.07-.23.05-.41.05-.65l.1-.99Z" fill="#0094c0"/>
  <path d="M23.85,14.21c.11.12-.02.2-.1.05-.13.02-.46.05-.43.19-.01,0-.11.05-.14,0-.08-.1.08-.09.14-.12.03-.02.05-.07.05-.07.03-.03.03-.06,0-.1v-.05c.14.03.35.08.48.1Z" fill="#0094c0"/>
  <path d="M22.84,13.97s-.04.06-.05.1c-.23.07-.53-.16-.24-.19.09.04.2.07.29.1Z" fill="#008abf"/>
  <path d="M23.37,14.17c.08,0,.18,0,.19.1-.06.01-.15-.02-.19,0l-.05-.03.05-.07Z" fill="#0291c5"/>
  <path d="M21.77,11.51c.09-.08.39-.42.46-.44.07-.02.13-.03.12.07-.02.2-.23.16-.14.31-.04.02-.03.05.05.1,0,.01,0,.03,0,.05-.08.07-.11.13-.1.19.04.04.05.13.05.19-.02,0-.04.04-.1.05-.02.02-.03.02-.05,0-.08-.06-.14-.08-.19-.05,0,.04-.03.04-.05,0-.11,0-.08-.25,0-.33l-.04-.1s-.04-.03,0-.05Z" fill="#0091be"/>
  <path d="M21.77,11.51v.05c.09.12,0,.26-.14.24.05.15-.03.27-.19.29.07.11-.03.2-.14.19-.01.04-.03.04-.05,0,.14-.27.26-.54.48-.77,0,0,.04,0,.05,0Z" fill="#0187b3"/>
  <path d="M22.26,11.61c.02.11.06.22-.1.19-.03-.03-.13-.04-.14-.05-.1-.17.11-.15.24-.14Z" fill="#0295b9"/>
  <path d="M22.21,11.46c.07.02.03.06.05.1h-.29s0-.1,0-.1c.07.01.18-.02.24,0Z" fill="#0091c4"/>
  <path d="M12.5,11.08c.05-.13.14-.08.25.14.11.25.25.47.42.68.14,0,.16.06.05.14.07.13.13.21.19.24.06-.11.14-.07.23.11l.1.09v.05c.07,0,.12.04.15.12.08.24.19.44.33.6.15.37.28.85.43,1.16l-.14.1c-.04-.13-.05-.41-.19-.39-.11.3-.2.06-.21-.14-.08-.17-.14-.35-.18-.53-.2-.08-.28-.14-.33-.37-.16-.03-.2-.17-.11-.42-.24-.03-.39-.19-.45-.48-.33-.28-.54-.62-.64-1.02l.09-.07Z" fill="#128ccb"/>
  <path d="M12.88,10.45c.07-.05.16.07.16.17l.09.07c.03-.1.07-.1.1,0,.06.02.07.06.1.1.04.2.08.36.19.53.15.19.11.36.18.57.05.13.2.24.2.25,0,.01-.04.09-.05.1,0,.07-.01.14-.05.19.08.1.07.13-.05.1,0-.01,0-.03,0-.05-.29-.25-.55-.63-.44-1.03-.13-.03-.2-.13-.23-.29l-.39-.41.04-.11c-.01-.08,0-.13.05-.14.02-.04.05-.06.1-.05Z" fill="#0894ce"/>
  <path d="M14,12.62c.12.21.16.43.24.63l-.14-.05-.05.14c-.03-.27-.18-.56-.29-.82l.05-.1c.06-.03.13.04.19.19Z" fill="#1b91cb"/>
  <path d="M14.67,14.41c.14.27.18.4.29.68l-.1.14c.04-.12-.14-.2-.14-.23-.01-.05.01-.13,0-.18-.05-.16-.12-.22-.04-.41Z" fill="#228bc9"/>
  <path d="M13.85,12.24l.14.39s-.17-.15-.19-.19c-.13-.24,0-.17.05-.19Z" fill="#2a93c6"/>
  <path d="M23.27,11.56c-.07.01-.23.06-.29.1-.04,0-.11.01-.14,0-.02-.08.03-.14.15-.18-.07-.35-.08-.7-.03-1.07l.12-.1c.14.02.14-.07,0-.05v-.05s.19-.05.19-.05c.09.16-.03.18-.03.27,0,.36.07.76.03,1.13Z" fill="#04adc3"/>
  <path d="M23.08,10.31c-.05.06-.07.86-.05.99.03.25.23.17-.19.36-.02,0-.04,0-.05-.03-.01-.04.05-.63.05-.77,0-.07-.02-.15-.03-.22,0-.06.1-.11-.07-.1.02-.01.06-.11.1-.14.09-.02.15-.08.24-.1Z" fill="#0aa6c2"/>
  <path d="M21.43,12.09c.27-.22.19.05.1.24.08.11,0,.29-.1.39-.02.05-.07.09-.1.14l-.14-.05.05.14s-.09-.05-.14-.05l-.07-.03c.11-.19.2-.39.26-.59,0-.1.12-.15.14-.19Z" fill="#1480ba"/>
  <path d="M21.29,12.28c0,.07.07.16.04.26-.03.11-.3.15-.24.37-.03,0-.06-.01-.09,0-.03.12-.16.24-.2.33.09-.34.27-.65.43-.97h.05Z" fill="#0f82b9"/>
  <path d="M23.66,19.62l-.1.24c.24-.06.14.08.14.17v1.4c0,.07.24.06.29.07l-.05.1s-.41.01-.29.14c.07.08.48-.03.43.24-.05,0-.1,0-.14,0-.22-.05-.39-.18-.61-.24-.14-.04-.02-.04-.02-.15-.01-.08.04-.12.14-.11l-.04-1.49s-.25-.24-.24-.26c.02-.03.05-.05.09-.07-.04-.03-.03-.05.05-.05.11.01.23,0,.34,0Z" fill="#0798c1"/>
  <path d="M23.32,19.62l-.05.05c-.08.08-.04.16.12.24-.09.52-.11,1.04-.06,1.58,0,.06-.06.1-.16.11-.05,0-.1,0-.14,0l-.12-.05c.01-.59-.01-1.15-.07-1.69.07-.06.06-.15,0-.27l.1-.07c.07.02.33.09.39.1Z" fill="#008fc0"/>
  <path d="M23.27,19.67s-.06.19.24.22l.05,1.68s-.21.02-.24.02c-.05,0-.1,0-.14,0,.07-.07.07-.09.07-.18,0-.5-.11-1.1.08-1.56-.15.02-.28-.06-.34-.19.06,0,.28-.01.29,0Z" fill="#0094c0"/>
  <path d="M22.88,19.47s.03.04.05.05v1.81s.1.26.1.26c-.03,0-.06,0-.1,0-.05,0-.1,0-.14,0l-.04-.09c.03-.48.03-.96.01-1.45-.39,0-.21-.27.03-.26-.11-.2-.11-.3,0-.32.03,0,.07,0,.1,0Z" fill="#008bc0"/>
  <path d="M21.92,13.78l-.05.09c.09,0,.1.05.14.1.02-.03.06-.07.08-.06.08.04.06.5-.04.54l.1.23c-.05.3,0,.55.15.75-.08.18-.15.36-.23.54.07.05.1.1.08.17.05.03.03.04-.05.05-.14-.03-.37-.04-.48-.1-.07-.09-.08-.11.05-.1.02-.22.11-.44.3-.55l-.14-.06c-.07-.08-.03-.64,0-.79,0,0,.04.09-.05,0-.21-.24-.23-.89.14-.82Z" fill="#0d7cbc"/>
  <path d="M21.63,14.46l.04.11c-.12.22-.15.48-.08.79.02.18-.02.33-.12.48.07.05.15.13.11.22h-.14c-.03-.06-.09-.07-.14-.1-.02,0-.05,0-.07,0-.03,0-.02-.03-.02-.05-.01-.09.04-.03.04-.03-.21.03-.3-.08-.09-.18-.17-.23-.2-.45-.09-.66.13-.25.23-.56.34-.77.03-.06.06-.13.1-.19,0-.02.04-.03.05-.05.12.04.14.33.1.43Z" fill="#0f71b6"/>
  <path d="M22.3,13.88s.08.01.11.05l-.02.48c.3.24.23.64.15.97.09-.01.15.6.13.63-.02.07-.07.08-.13.09l-.02.05c.17-.01.21.18.02.14-.14-.03-.29-.06-.43-.1,0-.02.03-.04.05-.05-.04-.29.02-.53.18-.69-.17-.21-.23-.48-.18-.81-.08-.18-.08-.37-.02-.57-.05-.09-.05-.16.02-.19.07.1.12,0,.14,0Z" fill="#0882bd"/>
  <path d="M22.16,13.88c.04.06,0,.27.01.28.01.01.16,0,.08.1,0,0-.09-.01-.1.03-.01.08.09.23.1.34.02.18-.03.42,0,.58.02.1.19.13.19.29,0,.02-.18.11-.19.15-.03.14.03.34,0,.47-.01.06-.07.02-.1.03-.34-.15-.12-.17-.08-.42.18-.04-.03-.32.18-.31-.32-.19-.15-.45-.2-.74-.01-.08-.1-.14-.1-.25,0-.09.09-.06.1-.1,0-.03.04-.26.04-.28,0-.03-.06-.05-.09-.07l.1-.19h.05s0,.08,0,.1Z" fill="#0a7fbd"/>
  <path d="M22.45,13.83s.07.04.1.05l-.05.02c.06.12.21.11.29.17,0,.01,0,.03,0,.05l-.1.07c.29.13.36.36-.03.34v.07c.19.05.14.84-.11.77,0-.17.04-.72-.05-.79-.01-.01-.07.02-.09,0-.24-.21-.04-.45-.11-.71.04-.02.07-.07.14-.05Z" fill="#0585bd"/>
  <path d="M21.53,14.02c.14-.26.17-.39.48-.29.02.08-.06.03-.1.05-.04.01-.05-.03-.1.03-.25.37-.1.46-.05.79.09.04.07.29-.05.29-.03.18-.2.08-.17-.09.05-.12.07-.24.07-.35-.05-.15-.06-.29-.1-.43Z" fill="#1777b7"/>
  <path d="M12.98,9.87c.03.07.06.19.1.29.01.03.04.06.05.1,0,.06,0,.09-.05.1.01.18-.05.21-.19.1,0,.02,0,.07,0,.1l-.1-.05c-.11-.08-.21-.44-.1-.58.01-.09.11-.07.16-.03,0,0-.12.07.03-.02-.03-.08-.03-.09.05-.05,0,.02.04.03.05.05Z" fill="#0798cf"/>
  <path d="M13.51,11.32c-.07-.09-.11-.17-.19-.1v-.43c.1.15.14.36.19.53Z" fill="#3297c7"/>
  <path d="M13.22,10.69s-.07,0-.1,0c-.15-.04-.13-.25-.05-.34.01-.03,0-.07.05-.1.05.14.09.28.1.43Z" fill="#259acb"/>
  <path d="M17.47,15.61c.12.09.24.09.36.02l.12.05c.08.44.3.8.67,1.07l.1.15c.01.13.09.18.21.16-.01.18.11.33.23.43,0,.03-.09.26-.14.34-.06.02-.03,0-.05,0-.06-.08-.16-.12-.3-.1-.12-.19-.25-.38-.38-.57-.09-.03-.14-.11-.16-.25-.17-.2-.31-.44-.35-.69-.14-.02-.22-.08-.19-.22-.13-.05-.18-.13-.17-.23,0-.01,0-.03,0-.05.01-.04.04-.07.05-.1Z" fill="#01a5cf"/>
  <path d="M17.28,16.39c.1,0,.02.04.02.04.05-.17.34-.08.33.1-.16.19-.21.39.11.38.16.14.29.35.26.58.32.18.4.48.47.81l-.08.08c.04.13,0,.14-.1.05-.14.08-.2-.03-.1-.14-.02-.06-.03-.11-.1-.14l-.06.03c-.11-.25-.27-.42-.48-.53.02-.06-.11-.36-.14-.39-.15-.02-.25-.14-.22-.29-.1,0-.16-.04-.17-.13.08-.16.17-.29.24-.43Z" fill="#019acf"/>
  <path d="M17.43,15.76c.06.06.21.12.25.18.07.11-.13.19.24.16l-.05.24.1-.05c0,.08,0,.16.03.23.12.29.27.2.3.64.12.12.31.38.1.48-.1.1-.17.04-.22-.2-.18-.16-.3-.34-.37-.55-.1.09-.39-.04-.3-.19.19-.28.18-.32-.17-.37v-.15c.02-.21.03-.23.09-.43Z" fill="#09a1cf"/>
  <path d="M17.04,16.82c.47.07.2.11.27.24.04.09.19.08.21.1.03.03,0,.12.02.17.03.06.29.07.09.23.05.1.19.05.23.08.02.02.12.37.25.47.06,0,.09.06.1.14.04.11.09.14.1.14.11.04.17.27,0,.29-.02.04-.05.08-.08.08-.21-.03-.38-.56-.4-.75-.37-.22-.63-.51-.77-.88,0-.02,0-.05,0-.05.05,0,.03-.06-.05-.19.02-.03.03-.06.05-.1Z" fill="#0697ce"/>
  <path d="M17.33,16.19c.15.21.17.11.39.05-.03.07,0,.26-.01.31-.03.06-.21.12-.18.24.01.06.1.09.16.07.11-.03.07-.22.17-.24.06.13.03.3.08.42.02.04.25.24.31.32.07.1.03.23.14.27.01-.04.03-.04.05,0,.06.05.1.12.13.22.15.12.36.37.11.46.06.07.16.24.05.29-.15.26-.46,0-.34-.24-.05-.17-.1-.44-.21-.61-.03-.05-.27-.21-.27-.24-.02-.11.01-.18-.05-.33-.04-.11-.31-.33-.44-.31l.14-.43c-.13.09-.08-.05-.12-.05-.1-.01-.18.22-.17,0,.04-.08.04-.11.05-.19Z" fill="#029dce"/>
  <path d="M16.99,16.92l.14.17s-.08.01-.1.02l-.1-.1s.03-.06.05-.1Z" fill="#0a94ce"/>
  <path d="M18.39,18.36c.07.25.11.27.34.24.05.29-.13.28-.18.4-.02.04.04.09.01.13-.02.03-.11.05-.12.1h-.05c-.05-.02-.08-.1-.08-.25-.14-.14-.15-.23-.02-.28,0-.07.03-.17,0-.29l.1-.05Z" fill="#0897ce"/>
  <path d="M18.68,18.32c.08-.16.13-.13.14.1.02,0,.04,0,.05.02,0,.05-.04.11-.05.17-.03,0-.07,0-.1,0-.02-.11-.04-.16-.05-.29Z" fill="#11a1cd"/>
  <path d="M24.28,14.5c.27-.29.35.07.28.35.03,0,.05.02.05.05.04.43.05.92-.03,1.32.09.15.18.43-.06.41-.05-.02-.23-.13-.24-.14-.22-.11-.23-.23-.1-.44v-1.37s.1-.12.1-.12c-.04-.01-.04-.03,0-.05Z" fill="#00a5c1"/>
  <path d="M24.28,14.55c.03.47-.06,1.03,0,1.48.01.1.07.05.1.09-.03.07-.2-.01-.2.19,0,.02.07.03.1.07.02.03,0,.09,0,.11-.09,0-.21-.01-.24.1-.06-.01-.14-.04-.19-.05-.06-.01-.04-.09.06-.24-.2-.13-.12-.42.04-.2.1-.22.08-.57,0-.78,0-.08-.02-.83.02-.83.08,0,.26.02.32.06Z" fill="#009fc0"/>
  <path d="M24.67,14.36c.06,0,.13,0,.19,0-.03.26,0,.53,0,.8,0,.28-.04.58,0,.86.01.1.1.18.1.24,0,.02-.19.03-.1.12.08.08.33-.07.05.24.04.03.04.07,0,.1-.08-.02-.16-.02-.24-.05.02-.19-.02-.31-.09-.5l.09-.1h-.05c.02-.47.01-.93-.05-1.38l.09-.07c-.14-.1-.29-.32-.05-.27.02,0,.03,0,.05,0Z" fill="#00abc4"/>
  <path d="M24.62,14.36c-.16.08.1.13.1.17s-.05.07-.05.09v1.45c0,.24.14.37,0,.6-.05-.02-.09-.03-.14-.05.26-.14-.03-.28-.05-.41-.02-.09.09-.04.1-.14.03-.21.03-.86,0-1.07-.01-.09-.09-.05-.1-.14-.02-.2.16-.53-.19-.36-.06.04-.09.02-.05-.05-.04-.01-.04-.03,0-.05.03,0,.13-.03.19,0l-.05-.1c.09-.05.21.04.24.05Z" fill="#06a8c3"/>
  <path d="M25.06,16.77c-.05-.01-.1-.04-.14-.05-.07-.1-.03-.06,0-.1.1,0,.15.05.14.14Z" fill="#21acbe"/>
  <path d="M22.79,19.47c-.14.18.04.19.05.22.07.29-.18.06-.29.26.06.01.27-.02.29,0,.05.05.02,1.27.02,1.46,0,.09,0,.11-.07.18-.03,0-.06,0-.1,0-.17,0-.25-.02-.19-.21,0-.49-.04-.98-.1-1.46.08-.14.12-.21.1-.37l.13-.13c.05.01.11.04.14.05Z" fill="#0387c0"/>
  <path d="M22.64,19.43l.05.14c-.08-.03-.15.04-.1.1,0,0,.09-.05.09-.05,0,0,.06.14.05.14-.02.02-.24.02-.24.17,0,.07.05.15.05.24,0,.37-.05.85,0,1.21.01.11.05.17.14.22-.05,0-.1,0-.14,0l.14.1-.05.1c-.12-.02-.24-.08-.34-.1h.14s-.05-.15-.05-.15c-.03,0-.08.05-.1.05l-.06-.03c.14-.28.22-.66,0-.94l.02-.59c-.09-.06-.11-.13,0-.18.36-.04.03-.1-.03-.19-.15-.26.11-.03.17-.15-.26-.03-.19-.06-.29-.24.19.06.34.1.53.14Z" fill="#0983be"/>
  <path d="M21.63,14.46s.08.06.09.13c.01.13-.2.34.01.31.12.09.09.38.04.53.13.07.13.17-.02.31-.01.1-.03.19-.07.28-.02.01-.03.07-.05.1-.02-.01-.03-.04-.05-.05-.01,0-.21-.18-.22-.19-.09-.11.05-.09.07-.13.16-.27-.07-.77.08-1.11.03-.07.14-.05.11-.16Z" fill="#0c75b9"/>
  <path d="M22.55,16.1s.08-.02.1,0c.08-.04.16,0,.24.14,0,.1.08.14.14.19-.07-.01-.13-.03-.19-.05-.12-.03-.21-.08-.29-.1l.05-.1h-.24c.02-.09.11-.1.19-.1Z" fill="#1e85b6"/>
  <path d="M17.67,15.08c.17-.04.25.1.24.42.16-.02.27.08.34.31.05.27.14.49.28.66.25,0,.36.03.42.3.15.02.23.06.18.22.12-.03.23-.02.23.12-.03.09-.06.23-.1.34,0,.02-.13.04-.05.19l-.1-.05c-.03.07.04.11.05.15-.05.02-.1.08-.14.1-.06-.1.11-.28.1-.29,0,0-.09,0-.14-.08-.02-.04-.07-.43-.15-.33-.04.05-.03.14-.14.12.04-.45-.41-.64-.56-.88-.02-.03-.2-.39-.21-.41-.02-.04.01-.25-.08-.25-.05,0-.2.24-.36-.1.06-.18.13-.35.19-.53Z" fill="#05a9d0"/>
  <path d="M17.76,14.84c.15.06.29.24.32.39.18-.03.23.17.2.33.14.23.25.46.33.69-.11.06.04-.25.24-.07.09.26.18.47.48.49.05.06.09.13.1.2-.03.1-.07.16-.1.24l-.19-.05v.24c-.09.02-.03-.06-.05-.1-.04-.07-.04.19-.12.05-.09-.16.05-.24.07-.39-.29.06-.2-.23-.3-.28-.06-.03-.19.01-.28-.03-.01,0-.17-.17-.18-.18-.05-.12-.08-.4-.11-.53,0-.03-.07-.02-.09-.07-.02-.04.01-.12,0-.15-.03-.04-.23,0-.26-.05-.1-.18.06-.36-.17-.49.03-.09.07-.17.1-.24Z" fill="#01acd0"/>
  <path d="M17.91,14.41c.05.06.17-.01.19,0,.04.04.08.34.11.39.01.03.07.13.1.19.14.3.32.3.53.55.13.15.46,1.03.7.94.05-.02-.03-.19.12-.14,0,.15-.07.19-.1.29-.05.17-.11.21-.21.05-.27-.04-.39-.22-.46-.47-.22-.05-.31-.15-.3-.29l-.14-.05c-.04-.29-.15-.5-.33-.64l-.03-.24c-.24-.08-.32-.23-.23-.44.02-.05.03-.1.05-.14Z" fill="#08b2d0"/>
  <path d="M17.86,14.55c0,.36.07.21.23.31s.09.2.11.33c0,.04.18.12.19.17.05.21.05.16.1.29.02.04-.01.14,0,.16.02.02.18-.02.19,0,.01.01-.03.18.02.25.04.06.21.03.25.09.03.05,0,.16.04.23,0,.01.18.19.19.19.08.03.16,0,.22.02.05.02.05.25.15.04,0,.01,0,.03,0,.05-.03.1-.08.15-.1.19l-.1.07c.06-.25-.2-.22-.27-.28-.14-.1-.16-.24-.21-.33-.2-.33-.18-.01-.19,0s-.18.01-.19,0c-.01-.01.01-.15,0-.21-.02-.09-.28-.52-.29-.55-.02-.07.01-.24,0-.26-.04-.04-.26.12-.19-.19l-.14.05c.11-.2-.1-.12-.1-.34.03-.1.06-.19.1-.29Z" fill="#02aed0"/>
  <path d="M23.95,16.1s-.1-.02-.1.02l.19.19c.02.12-.18.01-.19.22-.07-.01-.17.01-.24,0-.04-.14.01-.16.1-.05.3-.16.07-.18.05-.22-.06-.11-.07-.71-.05-.86.01-.09.09-.06.1-.1.05-.23-.05-.58.05-.84.06-.08.18.1.1.14,0,.48.02.96.04,1.44l-.05.06Z" fill="#009ac1"/>
  <path d="M23.51,16.29c.11,0,.24.06.19.19-.03.01-.08,0-.1.05-.14-.02-.27-.03-.39-.05.03-.12-.04-.1-.15-.1-.03-.09.04-.08.05-.1.1-.03.31-.07.39,0Z" fill="#0793c1"/>
  <path d="M18.29,17.16c.17,0,.18.17.25.26.04.05.1.06.12.1.02.03,0,.11.02.12.08.07.38-.13.29.2-.33.02,0,.15-.05.39h-.13c-.08-.2-.19-.4-.35-.58-.02,0-.04,0-.05,0,0-.08.02-.18,0-.26-.01-.05-.07.02-.1-.23Z" fill="#11a1cd"/>
  <path d="M18.44,17.64s.13-.01.14,0,0,.12.03.19c.02.03.09.04.12.09.06.1.09.23.19.3v.05h-.1s0,.14,0,.14c0,0-.03.04-.05.05,0-.11.03-.17-.1-.15,0-.07.05-.16.04-.21-.02-.11-.34-.26-.28-.46Z" fill="#09a1cf"/>
  <path d="M24.09,14.26c-.07.09-.02.16.14.19.01.02.05.04.05.05,0,.02,0,.03,0,.05h-.29c.02.22-.03.49,0,.7.01.09.09.06.1.1.02.08.01.64-.02.69-.03.05-.09.03-.12.05-.15-.46.04-1.12-.05-1.57,0-.05-.01-.05-.05-.07-.05-.03-.14-.02-.19,0-.02-.09.06-.12.1-.19.04,0,.08,0,.1-.05.08.01.19.04.24.05Z" fill="#009dc1"/>
  <path d="M11.48,9.58c.09.01.15.03.13.13.19.07.27.24.26.5.31.21.51.35.55.77l.08.1c0,.1.17.57.2.62.12.15.34.23.49.54.04.08.01.19.05.24.05.08.28,0,.34.14.05.09-.09.32-.08.34,0,.01.15.01.18.06.03.05.01.23.07.27s.17-.03.25.11.14.74.17.77c.03.03.12-.04.14-.05v.29c-.29,0-.16-.23-.25-.44-.07-.18-.36-.35-.41-.42-.05-.09,0-.24-.03-.28-.02-.03-.14-.02-.18-.07s-.11-.45-.22-.55c-.03-.03-.13-.02-.18-.08-.08-.08-.07-.3-.16-.37-.07-.06-.21-.03-.22-.05-.02-.02.01-.12-.02-.18-.13-.3-.45-.69-.62-1-.06-.11-.05-.3-.18-.36-.04-.02-.14,0-.15-.01-.02-.02.01-.12,0-.15-.1-.2-.19-.41-.32-.62-.03-.05-.27-.09-.02-.24.03,0,.06,0,.1,0Z" fill="#108acb"/>
  <path d="M12.06,9.58c.09.02.23.14.19.24.16.02.21.09.15.22.13.04.17.15.19.28.14,0,.19.15.09.23-.03.05-.06.1-.1.14.1.08.08.11-.05.1-.13,0-.24-.1-.3-.31-.13-.03-.17-.08-.13-.17-.15-.15-.2-.28-.16-.39-.17-.04-.5-.19-.23-.33.11,0,.23,0,.34,0Z" fill="#0a90cc"/>
  <path d="M11.72,9.58c-.06.3.13.16.24.22.16.09.04.17.04.28,0,.01.17.08.1.22-.07.05-.15.01-.24-.1,0,0-.08.03-.1-.03-.02-.07,0-.29-.06-.34s-.22.01-.28-.08c0,0,.16-.03.05-.17.08,0,.16,0,.24,0Z" fill="#0b8dcb"/>
  <path d="M12.11,9.58c.23,0,.46,0,.69,0,.04,0,.1.19.13.24-.01.02-.04.04-.05.05-.08.02-.17,0-.19-.1-.01-.08-.05-.06-.11-.03-.07.23-.18.25-.33.08-.1-.07-.16-.04-.19-.24.02,0,.03,0,.05,0Z" fill="#0894cb"/>
  <path d="M21.05,15.03c.01.11-.03.26,0,.36.02.05.22.13.17.35-.01.07-.15.04-.13.12l.14.02s-.04.03-.04.03c-.03,0-.07,0-.1,0-.04-.01-.31-.13-.32-.14-.05-.06.02-.1.03-.15.03-.11.1-.22.1-.34.04-.08.11-.17.14-.24Z" fill="#1969b1"/>
  <path d="M21.82,12s.03,0,.05,0c.08-.11.16-.08.19.05.02,0,.03,0,.05,0,0,.02-.03.04-.05.05-.25.04-.11.07-.24.21-.04.04-.11.04-.15.08-.2.18-.15-.1-.07-.24-.1-.06-.04-.1.07-.1.06-.11.11-.12.14-.05Z" fill="#0388b7"/>
  <path d="M21.63,11.8c.18-.22.21.14.05.24-.03.11-.2.37,0,.34-.05.07-.14.26-.19.34h-.05c.14-.28.04-.3.06-.4,0-.06.24-.28-.06-.23.06-.1.13-.19.19-.29Z" fill="#0f82b9"/>
  <path d="M24.09,14.26c.05.03-.04.13.14.14v.05c-.06-.01-.17.05-.21.05-.12-.03-.06-.29.07-.24Z" fill="#009fc0"/>
  <path d="M7.28,20.1c-.13,0-.18-.14-.29-.17-.08-.02-.33.08-.29-.09,0-.04.28-.27.31-.26.06.08.32.46.26.53Z" fill="#284496"/>
  <path d="M3.8,15.18c.05.05-.1.19-.14.14s.1-.19.14-.14Z" fill="#2a4697"/>
  <path d="M20.47,13.78c-.17-.07-.15-.23-.14-.39l.24.14c-.03.1-.08.2-.1.24Z" fill="#42bbcb"/>
  <path d="M15.11,16.19c.02.05.11.23.14.26.05.05.13.02.14.03.06.07-.04.21-.04.24l-.14-.1v.24s-.15-.05-.15-.05c0-.02,0-.03,0-.05,0,0,.04-.02.03-.06,0-.16-.1-.39.01-.52Z" fill="#1a82c5"/>
  <path d="M15.2,17.25c.25.05.3.2.4.37.02.03.09.04.1.06.03.04-.03.13-.02.19-.39,0-.24-.07-.29-.3,0-.02-.16-.24-.19-.32Z" fill="#1f7cc0"/>
  <path d="M13.85,17.45h.39c-.12.41.33.56.46.82.04.08.02.19.06.27.07.15.25.29.35.45-.08-.02-.46-.37-.47-.4-.03-.08,0-.17-.02-.24-.11-.27-.26-.33-.47-.47-.06-.11-.13-.18-.24-.22v-.07s-.03-.09-.05-.14Z" fill="#296cb4"/>
  <path d="M14.14,17.88c-.05-.03-.1-.08-.15-.12-.05-.03-.13-.02-.14-.03-.02-.02.05-.12.05-.14.14.04.23.14.24.29Z" fill="#2b6ab2"/>
  <path d="M22.16,19.86s.07,0,.1,0c-.03.11.09.07.1.17.02.2-.04.49,0,.67,0,.04.09.01.1.1.01.09.02.55,0,.63-.01.06-.21-.04-.15.17-.25,0-.06-.13-.05-.22.02-.13.02-.46,0-.58-.01-.09-.09-.06-.1-.1-.04-.18.04-.49,0-.66-.02-.07-.21-.05-.1-.18.03,0,.06,0,.1,0Z" fill="#0881be"/>
  <path d="M17.04,17.16l.39.45c.04.07.44.35.46.37.07.1.03.36.25.63.04.04.09.1.16.1,0,.05,0,.1,0,.15l.1-.05c-.08.12.01.39,0,.43,0,.01-.13.05-.05.19-.33-.11-.05-.25-.05-.27.04-.21-.16-.33-.34-.21,0-.17-.08-.4-.15-.55-.12-.24-.46-.42-.57-.6-.06-.09-.09-.29-.1-.3-.09-.1-.13.2-.24.14-.03-.12-.1-.16-.05-.29.23.2.18-.03.19-.19Z" fill="#0a94ce"/>
  <path d="M23.51,16.19v.1c-.13,0-.26.1-.39,0,.02-.03.03-.06.05-.1.11,0,.23.01.34,0Z" fill="#0094bc"/>
  <path d="M22.79,14.12s-.06.08-.05.1c.48.11.19.18.19.41v1.42s.19.02.14.14c-.07.01-.13.03-.19.05-.31.09-.14.02-.16-.04,0,0-.08-.1-.08-.11.02-.21.02-.44,0-.67.14-.24.19-.63,0-.83,0-.02-.13-.05-.1-.14h.29c.05-.22-.13-.13-.26-.19-.1-.05.11-.25.21-.14Z" fill="#008abf"/>
  <path d="M21.77,11.56c.37-.02-.06.26.05.43-.02,0-.11.05-.14.05.04-.12.11-.28-.05-.24.05-.08.08-.17.14-.24Z" fill="#008dbd"/>
  <path d="M21.87,12c.02-.15,0-.2.19-.17.23.03-.07.07,0,.22-.09,0-.15-.05-.19-.05Z" fill="#008dbd"/>
  <path d="M12.74,10.64c.11.18.34.33.43.47.04.06.03.15.07.21.03.04.16,0,.17.07.02.17-.11.29.06.57.09.16.21.33.28.51-.18.03-.16-.15-.34-.19-.07-.03-.14-.11-.19-.24-.01-.05-.03-.1-.05-.14-.22-.33-.44-.67-.67-1l.04-.11s.03-.08.05-.1c.02-.05.06-.1.1-.14.07-.02.08.04.05.1Z" fill="#0b90cc"/>
  <path d="M11.87,10.21c.07-.02.19.06.24.1.22.16.29.28.43.48.17.23.55.87.63,1.11-.34-.13-.37-.58-.58-.79-.05-.05-.07-.02-.1-.03s-.1.02-.14,0c-.06-.04-.13-.55-.16-.57-.02-.02-.14.02-.18,0-.01,0-.11-.23-.15-.28Z" fill="#0d8dcc"/>
  <path d="M13.22,12.04c.14-.03.12.15.19.24-.03,0-.05.09-.12,0s-.05-.16-.07-.24Z" fill="#0d8dcc"/>
  <path d="M12.26,9.82c.32.06.2-.08.25-.13.04-.05.38-.11.28.03,0,0-.06.01-.1.05.05.07.02.1-.05.09,0,0,.04-.02.05.06.05.03.1.48.1.58,0,.05.01.12-.05.14-.01-.02-.03-.07-.05-.1-.01-.03,0-.11-.02-.15l-.1.05c-.08-.04-.06-.19-.12-.27-.04-.05-.13-.06-.14-.08-.07-.12.13-.15-.06-.28Z" fill="#0c94ce"/>
  <path d="M12.88,10.45c.02-.05,0-.11.07-.14l.02.14h.05s.03-.07.05-.1l.05.34s-.12.07-.14.05c-.01-.01,0-.25-.1-.29Z" fill="#0c94ce"/>
  <path d="M21.77,14.6c.13-.09.09-.05.1.07,0,.16-.03.51,0,.62.02.06.23,0,.2.2,0,.02-.28.21-.28.23-.02.06.07.18.04.23,0,.01-.11.02-.14.05-.17-.19.08-.29.1-.41.01-.11-.14-.09-.15-.14,0-.01.11-.17.12-.26.01-.08-.03-.19-.02-.3,0-.06.07-.14.05-.29Z" fill="#0a7abc"/>
  <path d="M22.64,14.6c.07.02.18-.07.19.07.01.15.02.44,0,.58-.01.09-.09.06-.1.1-.05.21.11.59-.1.74-.01,0-.07,0-.1,0,.21-.09.02-.2,0-.32-.02-.13,0-.27,0-.41.14-.04.12-.69.1-.77Z" fill="#0387bf"/>
  <path d="M12.88,9.87s.01.09,0,.1c-.02.02-.15-.04-.19-.05-.03-.02-.12.05-.1-.07,0-.04.06-.04.1-.07.08,0,.17,0,.19.1Z" fill="#259acb"/>
  <path d="M18.1,18.12s.09-.01.1,0c.01.02-.01.11,0,.14l-.1-.14Z" fill="#0897ce"/>
  <path d="M12.69,10.55c.04.2-.07.12-.1.14,0-.11-.03-.17.1-.14Z" fill="#0d8dcc"/>
</svg>